<svg width="424" height="418" viewBox="0 0 424 418" version="1.1" xmlns="http://www.w3.org/2000/svg" xmlns:xlink="http://www.w3.org/1999/xlink" xmlns:figma="http://www.figma.com/figma/ns">
<title>Group</title>
<desc>Created using Figma</desc>
<g id="Canvas" transform="translate(199 79)" figma:type="canvas">
<g id="Group" figma:type="frame">
<g id="Ellipse" figma:type="instance">
<g id="Ellipse" figma:type="ellipse">
<mask id="mask0_outline_ins">
<use xlink:href="#path0_fill" fill="white" transform="translate(-96 -79)"/>
</mask>
<g mask="url(#mask0_outline_ins)">
<use xlink:href="#path1_stroke_2x" transform="translate(-96 -79)"/>
</g>
</g>
<g id="=" figma:type="text">
<use xlink:href="#path2_fill" transform="translate(-96 -79)"/>
</g>
</g>
<g id="Ellipse" figma:type="instance">
<g id="Ellipse" figma:type="ellipse">
<mask id="mask1_outline_ins">
<use xlink:href="#path0_fill" fill="white" transform="translate(9 13)"/>
</mask>
<g mask="url(#mask1_outline_ins)">
<use xlink:href="#path1_stroke_2x" transform="translate(9 13)"/>
</g>
</g>
<g id="+" figma:type="text">
<use xlink:href="#path3_fill" transform="translate(9 13)"/>
</g>
</g>
<g id="Ellipse" figma:type="instance">
<g id="Ellipse" figma:type="ellipse">
<mask id="mask2_outline_ins">
<use xlink:href="#path0_fill" fill="white" transform="translate(-94 101)"/>
</mask>
<g mask="url(#mask2_outline_ins)">
<use xlink:href="#path1_stroke_2x" transform="translate(-94 101)"/>
</g>
</g>
<g id="sin" figma:type="text">
<use xlink:href="#path4_fill" transform="translate(-94 101)"/>
</g>
</g>
<g id="Ellipse" figma:type="instance">
<g id="Ellipse" figma:type="ellipse">
<mask id="mask3_outline_ins">
<use xlink:href="#path0_fill" fill="white" transform="translate(-173 297)"/>
</mask>
<g mask="url(#mask3_outline_ins)">
<use xlink:href="#path1_stroke_2x" transform="translate(-173 297)"/>
</g>
</g>
<g id="x" figma:type="text">
<use xlink:href="#path5_fill" transform="translate(-173 297)"/>
</g>
</g>
<g id="Ellipse" figma:type="instance">
<g id="Ellipse" figma:type="ellipse">
<mask id="mask4_outline_ins">
<use xlink:href="#path0_fill" fill="white" transform="translate(-29 299)"/>
</mask>
<g mask="url(#mask4_outline_ins)">
<use xlink:href="#path1_stroke_2x" transform="translate(-29 299)"/>
</g>
</g>
<g id="p" figma:type="text">
<use xlink:href="#path6_fill" transform="translate(-29 299)"/>
</g>
</g>
<g id="Ellipse" figma:type="instance">
<g id="Ellipse" figma:type="ellipse">
<mask id="mask5_outline_ins">
<use xlink:href="#path0_fill" fill="white" transform="translate(-199 13)"/>
</mask>
<g mask="url(#mask5_outline_ins)">
<use xlink:href="#path1_stroke_2x" transform="translate(-199 13)"/>
</g>
</g>
<g id="z" figma:type="text">
<use xlink:href="#path7_fill" transform="translate(-199 13)"/>
</g>
</g>
<g id="Arrow" figma:type="vector">
<use xlink:href="#path8_stroke" transform="matrix(-0.636383 0.771373 -0.771373 -0.636383 -50.9647 171.154)"/>
</g>
<g id="Arrow" figma:type="vector">
<use xlink:href="#path9_stroke" transform="matrix(-0.636383 0.771373 -0.771373 -0.636383 5 50)"/>
</g>
<g id="Arrow" figma:type="vector">
<use xlink:href="#path10_stroke" transform="matrix(0.636383 0.771373 0.771373 -0.636383 54 52)"/>
</g>
<g id="Arrow" figma:type="vector">
<use xlink:href="#path9_stroke" transform="matrix(-0.636383 0.771373 -0.771373 -0.636383 -104 -44.28)"/>
</g>
<g id="Arrow" figma:type="vector">
<use xlink:href="#path10_stroke" transform="matrix(0.636383 0.771373 0.771373 -0.636383 -55 -42.28)"/>
</g>
<g id="Ellipse" figma:type="instance">
<g id="Ellipse" figma:type="ellipse">
<mask id="mask6_outline_ins">
<use xlink:href="#path0_fill" fill="white" transform="translate(-96 214)"/>
</mask>
<g mask="url(#mask6_outline_ins)">
<use xlink:href="#path1_stroke_2x" transform="translate(-96 214)"/>
</g>
</g>
<g id="*" figma:type="text">
<use xlink:href="#path11_fill" transform="translate(-96 214)"/>
</g>
</g>
<g id="Arrow" figma:type="vector">
<use xlink:href="#path12_stroke" transform="matrix(-0.636383 0.771373 -0.771373 -0.636383 -96 256)"/>
</g>
<g id="Arrow" figma:type="vector">
<use xlink:href="#path12_stroke" transform="matrix(0.636383 0.771373 0.771373 -0.636383 -55 257)"/>
</g>
<g id="Ellipse" figma:type="instance">
<g id="Ellipse" figma:type="ellipse">
<mask id="mask7_outline_ins">
<use xlink:href="#path0_fill" fill="white" transform="translate(120 101)"/>
</mask>
<g mask="url(#mask7_outline_ins)">
<use xlink:href="#path1_stroke_2x" transform="translate(120 101)"/>
</g>
</g>
<g id="cos" figma:type="text">
<use xlink:href="#path13_fill" transform="translate(120 101)"/>
</g>
</g>
<g id="Ellipse" figma:type="instance">
<g id="Ellipse" figma:type="ellipse">
<mask id="mask8_outline_ins">
<use xlink:href="#path0_fill" fill="white" transform="translate(41 297)"/>
</mask>
<g mask="url(#mask8_outline_ins)">
<use xlink:href="#path1_stroke_2x" transform="translate(41 297)"/>
</g>
</g>
<g id="y" figma:type="text">
<use xlink:href="#path14_fill" transform="translate(41 297)"/>
</g>
</g>
<g id="Ellipse" figma:type="instance">
<g id="Ellipse" figma:type="ellipse">
<mask id="mask9_outline_ins">
<use xlink:href="#path0_fill" fill="white" transform="translate(185 299)"/>
</mask>
<g mask="url(#mask9_outline_ins)">
<use xlink:href="#path1_stroke_2x" transform="translate(185 299)"/>
</g>
</g>
<g id="p" figma:type="text">
<use xlink:href="#path6_fill" transform="translate(185 299)"/>
</g>
</g>
<g id="Arrow" figma:type="vector">
<use xlink:href="#path8_stroke" transform="matrix(-0.636383 0.771373 -0.771373 -0.636383 163.035 171.154)"/>
</g>
<g id="Ellipse" figma:type="instance">
<g id="Ellipse" figma:type="ellipse">
<mask id="mask10_outline_ins">
<use xlink:href="#path0_fill" fill="white" transform="translate(118 214)"/>
</mask>
<g mask="url(#mask10_outline_ins)">
<use xlink:href="#path1_stroke_2x" transform="translate(118 214)"/>
</g>
</g>
<g id="*" figma:type="text">
<use xlink:href="#path11_fill" transform="translate(118 214)"/>
</g>
</g>
<g id="Arrow" figma:type="vector">
<use xlink:href="#path12_stroke" transform="matrix(-0.636383 0.771373 -0.771373 -0.636383 118 256)"/>
</g>
<g id="Arrow" figma:type="vector">
<use xlink:href="#path12_stroke" transform="matrix(0.636383 0.771373 0.771373 -0.636383 159 257)"/>
</g>
</g>
</g>
<defs>
<path id="path0_fill" d="M 40 20C 40 31.0457 31.0457 40 20 40C 8.95431 40 0 31.0457 0 20C 0 8.95431 8.95431 0 20 0C 31.0457 0 40 8.95431 40 20Z"/>
<path id="path1_stroke_2x" d="M 39 20C 39 30.4934 30.4934 39 20 39L 20 41C 31.598 41 41 31.598 41 20L 39 20ZM 20 39C 9.50659 39 1 30.4934 1 20L -1 20C -1 31.598 8.40202 41 20 41L 20 39ZM 1 20C 1 9.50659 9.50659 1 20 1L 20 -1C 8.40202 -1 -1 8.40202 -1 20L 1 20ZM 20 1C 30.4934 1 39 9.50659 39 20L 41 20C 41 8.40202 31.598 -1 20 -1L 20 1Z"/>
<path id="path2_fill" d="M 23.7266 18.8457L 16.3965 18.8457L 16.3965 17.4307L 23.7266 17.4307L 23.7266 18.8457ZM 23.7266 22.4932L 16.3965 22.4932L 16.3965 21.0869L 23.7266 21.0869L 23.7266 22.4932Z"/>
<path id="path3_fill" d="M 20.7822 19.1357L 24.3506 19.1357L 24.3506 20.6738L 20.7822 20.6738L 20.7822 24.7168L 19.1475 24.7168L 19.1475 20.6738L 15.5791 20.6738L 15.5791 19.1357L 19.1475 19.1357L 19.1475 15.4004L 20.7822 15.4004L 20.7822 19.1357Z"/>
<path id="path4_fill" d="M 14.9727 23.4775C 14.9727 23.0381 14.8057 22.6982 14.4717 22.458C 14.1436 22.2119 13.5664 22.001 12.7402 21.8252C 11.9199 21.6494 11.2666 21.4385 10.7803 21.1924C 10.2998 20.9463 9.94238 20.6533 9.70801 20.3135C 9.47949 19.9736 9.36523 19.5693 9.36523 19.1006C 9.36523 18.3213 9.69336 17.6621 10.3496 17.123C 11.0117 16.584 11.8555 16.3145 12.8809 16.3145C 13.959 16.3145 14.832 16.5928 15.5 17.1494C 16.1738 17.7061 16.5107 18.418 16.5107 19.2852L 14.876 19.2852C 14.876 18.8398 14.6855 18.4561 14.3047 18.1338C 13.9297 17.8115 13.4551 17.6504 12.8809 17.6504C 12.2891 17.6504 11.8262 17.7793 11.4922 18.0371C 11.1582 18.2949 10.9912 18.6318 10.9912 19.0479C 10.9912 19.4404 11.1465 19.7363 11.457 19.9355C 11.7676 20.1348 12.3271 20.3252 13.1357 20.5068C 13.9502 20.6885 14.6094 20.9053 15.1133 21.1572C 15.6172 21.4092 15.9893 21.7139 16.2295 22.0713C 16.4756 22.4229 16.5986 22.8535 16.5986 23.3633C 16.5986 24.2129 16.2588 24.8955 15.5791 25.4111C 14.8994 25.9209 14.0176 26.1758 12.9336 26.1758C 12.1719 26.1758 11.498 26.041 10.9121 25.7715C 10.3262 25.502 9.86621 25.127 9.53223 24.6465C 9.2041 24.1602 9.04004 23.6357 9.04004 23.0732L 10.666 23.0732C 10.6953 23.6182 10.9121 24.0518 11.3164 24.374C 11.7266 24.6904 12.2656 24.8486 12.9336 24.8486C 13.5488 24.8486 14.041 24.7256 14.4102 24.4795C 14.7852 24.2275 14.9727 23.8936 14.9727 23.4775ZM 20.4834 26L 18.8574 26L 18.8574 16.4902L 20.4834 16.4902L 20.4834 26ZM 18.7256 13.9678C 18.7256 13.7041 18.8047 13.4814 18.9629 13.2998C 19.127 13.1182 19.3672 13.0273 19.6836 13.0273C 20 13.0273 20.2402 13.1182 20.4043 13.2998C 20.5684 13.4814 20.6504 13.7041 20.6504 13.9678C 20.6504 14.2314 20.5684 14.4512 20.4043 14.627C 20.2402 14.8027 20 14.8906 19.6836 14.8906C 19.3672 14.8906 19.127 14.8027 18.9629 14.627C 18.8047 14.4512 18.7256 14.2314 18.7256 13.9678ZM 24.6318 16.4902L 24.6846 17.6855C 25.4111 16.7715 26.3604 16.3145 27.5322 16.3145C 29.542 16.3145 30.5557 17.4482 30.5732 19.7158L 30.5732 26L 28.9473 26L 28.9473 19.707C 28.9414 19.0215 28.7832 18.5146 28.4727 18.1865C 28.168 17.8584 27.6904 17.6943 27.04 17.6943C 26.5127 17.6943 26.0498 17.835 25.6514 18.1162C 25.2529 18.3975 24.9424 18.7666 24.7197 19.2236L 24.7197 26L 23.0938 26L 23.0938 16.4902L 24.6318 16.4902Z"/>
<path id="path5_fill" d="M 19.9561 19.9619L 22.0654 16.4902L 23.9639 16.4902L 20.8525 21.1924L 24.0605 26L 22.1797 26L 19.9824 22.4404L 17.7852 26L 15.8955 26L 19.1035 21.1924L 15.9922 16.4902L 17.873 16.4902L 19.9561 19.9619Z"/>
<path id="path6_fill" d="M 24.21 21.3506C 24.21 22.7979 23.8789 23.9639 23.2168 24.8486C 22.5547 25.7334 21.6582 26.1758 20.5273 26.1758C 19.373 26.1758 18.4648 25.8096 17.8027 25.0771L 17.8027 29.6562L 16.1768 29.6562L 16.1768 16.4902L 17.6621 16.4902L 17.7412 17.5449C 18.4033 16.7246 19.3232 16.3145 20.501 16.3145C 21.6436 16.3145 22.5459 16.7451 23.208 17.6064C 23.876 18.4678 24.21 19.666 24.21 21.2012L 24.21 21.3506ZM 22.584 21.166C 22.584 20.0938 22.3555 19.2471 21.8984 18.626C 21.4414 18.0049 20.8145 17.6943 20.0176 17.6943C 19.0332 17.6943 18.2949 18.1309 17.8027 19.0039L 17.8027 23.5479C 18.2891 24.415 19.0332 24.8486 20.0352 24.8486C 20.8145 24.8486 21.4326 24.541 21.8896 23.9258C 22.3525 23.3047 22.584 22.3848 22.584 21.166Z"/>
<path id="path7_fill" d="M 18.2949 24.6729L 23.8584 24.6729L 23.8584 26L 16.3086 26L 16.3086 24.8047L 21.5557 17.835L 16.3877 17.835L 16.3877 16.4902L 23.5947 16.4902L 23.5947 17.6416L 18.2949 24.6729Z"/>
<path id="path8_stroke" d="M 40.3355 0.0954505C 40.3882 -0.454312 39.9853 -0.942719 39.4355 -0.995436L 30.4766 -1.85451C 29.9268 -1.90723 29.4384 -1.50429 29.3857 -0.954527C 29.333 -0.404764 29.7359 0.0836422 30.2857 0.136359L 38.2492 0.899979L 37.4855 8.86345C 37.4328 9.41321 37.8357 9.90162 38.3855 9.95434C 38.9353 10.0071 39.4237 9.60412 39.4764 9.05436L 40.3355 0.0954505ZM 0.636383 33.2269L 39.9764 0.771371L 38.7037 -0.771375L -0.636383 31.6842L 0.636383 33.2269Z"/>
<path id="path9_stroke" d="M 74.9479 10.7648C 75.3869 10.4297 75.4711 9.80213 75.1359 9.36316L 69.6743 2.20976C 69.3392 1.77079 68.7116 1.68663 68.2727 2.02178C 67.8337 2.35693 67.7495 2.98448 68.0847 3.42345L 72.9394 9.78202L 66.5809 14.6368C 66.1419 14.9719 66.0577 15.5995 66.3929 16.0384C 66.728 16.4774 67.3556 16.5616 67.7945 16.2264L 74.9479 10.7648ZM -0.132922 0.991127L 74.2082 10.9611L 74.474 8.97887L 0.132922 -0.991127L -0.132922 0.991127Z"/>
<path id="path10_stroke" d="M 74.0453 19.2743C 74.519 18.9903 74.6728 18.3761 74.3889 17.9024L 69.7618 10.183C 69.4778 9.70927 68.8636 9.55544 68.3899 9.83939C 67.9162 10.1233 67.7624 10.7375 68.0463 11.2112L 72.1593 18.0729L 65.2976 22.186C 64.8239 22.4699 64.6701 23.0841 64.954 23.5578C 65.238 24.0315 65.8522 24.1853 66.3259 23.9014L 74.0453 19.2743ZM -0.242955 0.970038L 73.2882 19.3866L 73.7741 17.4465L 0.242955 -0.970038L -0.242955 0.970038Z"/>
<path id="path11_fill" d="M 19.0244 17.3604L 16.3701 16.5693L 16.7744 15.2422L 19.4287 16.2266L 19.3496 13.2031L 20.6943 13.2031L 20.6064 16.2705L 23.2168 15.3037L 23.6211 16.6396L 20.9229 17.4395L 22.6631 19.8213L 21.5732 20.6475L 19.9385 18.1162L 18.3564 20.5859L 17.2578 19.7861L 19.0244 17.3604Z"/>
<path id="path12_stroke" d="M 52.5627 0.707107C 52.9532 0.316582 52.9532 -0.316582 52.5627 -0.707107L 46.1987 -7.07107C 45.8082 -7.46159 45.175 -7.46159 44.7845 -7.07107C 44.394 -6.68054 44.394 -6.04738 44.7845 -5.65685L 50.4414 0L 44.7845 5.65685C 44.394 6.04738 44.394 6.68054 44.7845 7.07107C 45.175 7.46159 45.8082 7.46159 46.1987 7.07107L 52.5627 0.707107ZM 0 1L 51.8556 1L 51.8556 -1L 0 -1L 0 1Z"/>
<path id="path13_fill" d="M 10.5605 24.8486C 11.1406 24.8486 11.6475 24.6729 12.0811 24.3213C 12.5146 23.9697 12.7549 23.5303 12.8018 23.0029L 14.3398 23.0029C 14.3105 23.5479 14.123 24.0664 13.7773 24.5586C 13.4316 25.0508 12.9688 25.4434 12.3887 25.7363C 11.8145 26.0293 11.2051 26.1758 10.5605 26.1758C 9.26562 26.1758 8.23438 25.7451 7.4668 24.8838C 6.70508 24.0166 6.32422 22.833 6.32422 21.333L 6.32422 21.0605C 6.32422 20.1348 6.49414 19.3115 6.83398 18.5908C 7.17383 17.8701 7.66016 17.3105 8.29297 16.9121C 8.93164 16.5137 9.68457 16.3145 10.5518 16.3145C 11.6182 16.3145 12.5029 16.6338 13.2061 17.2725C 13.915 17.9111 14.293 18.7402 14.3398 19.7598L 12.8018 19.7598C 12.7549 19.1445 12.5205 18.6406 12.0986 18.248C 11.6826 17.8496 11.167 17.6504 10.5518 17.6504C 9.72559 17.6504 9.08398 17.9492 8.62695 18.5469C 8.17578 19.1387 7.9502 19.9971 7.9502 21.1221L 7.9502 21.4297C 7.9502 22.5254 8.17578 23.3691 8.62695 23.9609C 9.07812 24.5527 9.72266 24.8486 10.5605 24.8486ZM 15.7373 21.1572C 15.7373 20.2256 15.9189 19.3877 16.2822 18.6436C 16.6514 17.8994 17.1611 17.3252 17.8115 16.9209C 18.4678 16.5166 19.2148 16.3145 20.0527 16.3145C 21.3477 16.3145 22.3936 16.7627 23.1904 17.6592C 23.9932 18.5557 24.3945 19.748 24.3945 21.2363L 24.3945 21.3506C 24.3945 22.2764 24.2158 23.1084 23.8584 23.8467C 23.5068 24.5791 23 25.1504 22.3379 25.5605C 21.6816 25.9707 20.9258 26.1758 20.0703 26.1758C 18.7812 26.1758 17.7354 25.7275 16.9326 24.8311C 16.1357 23.9346 15.7373 22.748 15.7373 21.2715L 15.7373 21.1572ZM 17.3721 21.3506C 17.3721 22.4053 17.6152 23.252 18.1016 23.8906C 18.5938 24.5293 19.25 24.8486 20.0703 24.8486C 20.8965 24.8486 21.5527 24.5264 22.0391 23.8818C 22.5254 23.2314 22.7686 22.3232 22.7686 21.1572C 22.7686 20.1143 22.5195 19.2705 22.0215 18.626C 21.5293 17.9756 20.873 17.6504 20.0527 17.6504C 19.25 17.6504 18.6025 17.9697 18.1104 18.6084C 17.6182 19.2471 17.3721 20.1611 17.3721 21.3506ZM 31.9707 23.4775C 31.9707 23.0381 31.8037 22.6982 31.4697 22.458C 31.1416 22.2119 30.5645 22.001 29.7383 21.8252C 28.918 21.6494 28.2646 21.4385 27.7783 21.1924C 27.2979 20.9463 26.9404 20.6533 26.7061 20.3135C 26.4775 19.9736 26.3633 19.5693 26.3633 19.1006C 26.3633 18.3213 26.6914 17.6621 27.3477 17.123C 28.0098 16.584 28.8535 16.3145 29.8789 16.3145C 30.957 16.3145 31.8301 16.5928 32.498 17.1494C 33.1719 17.7061 33.5088 18.418 33.5088 19.2852L 31.874 19.2852C 31.874 18.8398 31.6836 18.4561 31.3027 18.1338C 30.9277 17.8115 30.4531 17.6504 29.8789 17.6504C 29.2871 17.6504 28.8242 17.7793 28.4902 18.0371C 28.1562 18.2949 27.9893 18.6318 27.9893 19.0479C 27.9893 19.4404 28.1445 19.7363 28.4551 19.9355C 28.7656 20.1348 29.3252 20.3252 30.1338 20.5068C 30.9482 20.6885 31.6074 20.9053 32.1113 21.1572C 32.6152 21.4092 32.9873 21.7139 33.2275 22.0713C 33.4736 22.4229 33.5967 22.8535 33.5967 23.3633C 33.5967 24.2129 33.2568 24.8955 32.5771 25.4111C 31.8975 25.9209 31.0156 26.1758 29.9316 26.1758C 29.1699 26.1758 28.4961 26.041 27.9102 25.7715C 27.3242 25.502 26.8643 25.127 26.5303 24.6465C 26.2021 24.1602 26.0381 23.6357 26.0381 23.0732L 27.6641 23.0732C 27.6934 23.6182 27.9102 24.0518 28.3145 24.374C 28.7246 24.6904 29.2637 24.8486 29.9316 24.8486C 30.5469 24.8486 31.0391 24.7256 31.4082 24.4795C 31.7832 24.2275 31.9707 23.8936 31.9707 23.4775Z"/>
<path id="path14_fill" d="M 20.0791 23.6182L 22.2939 16.4902L 24.0342 16.4902L 20.2109 27.4678C 19.6191 29.0498 18.6787 29.8408 17.3896 29.8408L 17.082 29.8145L 16.4756 29.7002L 16.4756 28.3818L 16.915 28.417C 17.4658 28.417 17.8936 28.3057 18.1982 28.083C 18.5088 27.8604 18.7637 27.4531 18.9629 26.8613L 19.3232 25.8945L 15.9307 16.4902L 17.7061 16.4902L 20.0791 23.6182Z"/>
</defs>
</svg>
