<svg width="460" height="557" viewBox="0 0 460 557" version="1.1" xmlns="http://www.w3.org/2000/svg" xmlns:xlink="http://www.w3.org/1999/xlink" xmlns:figma="http://www.figma.com/figma/ns">
<title>Frame</title>
<desc>Created using Figma</desc>
<g id="Canvas" transform="translate(860 246)" figma:type="canvas">
<mask id="mask0_alpha" mask-type="alpha">
<path d="M -860 -246L -400 -246L -400 311L -860 311L -860 -246Z" fill="#FFFFFF"/>
</mask>
<g id="Frame" mask="url(#mask0_alpha)" figma:type="frame">
<path d="M -860 -246L -400 -246L -400 311L -860 311L -860 -246Z" fill="#FFFFFF"/>
<g id="Rectangle" figma:type="rounded-rectangle">
<use xlink:href="#path0_fill" transform="translate(-771 -172)" fill="#0888ED"/>
</g>
<g id="Rectangle" figma:type="rounded-rectangle">
<use xlink:href="#path1_fill" transform="translate(-614 224)" fill="#0888ED"/>
</g>
<g id="&#60; 1ms" figma:type="text">
<use xlink:href="#path2_fill" transform="translate(-603 206)"/>
</g>
<g id="397ms" figma:type="text">
<use xlink:href="#path3_fill" transform="translate(-737 -188)"/>
</g>
<g id="Arrow 2" figma:type="vector">
<use xlink:href="#path4_stroke" transform="matrix(6.12323e-17 -1 1 6.12323e-17 -812 229)"/>
</g>
<g id="Arrow 2" figma:type="vector">
<use xlink:href="#path5_stroke" transform="matrix(1 2.67189e-24 -2.67189e-24 1 -812 229)"/>
</g>
<g id="Setting vertex positions in JS" figma:type="text">
<use xlink:href="#path6_fill" transform="translate(-763 249)"/>
</g>
<g id="Parsing equation + generating new shader" figma:type="text">
<use xlink:href="#path7_fill" transform="translate(-619 249)"/>
</g>
</g>
</g>
<defs>
<path id="path0_fill" d="M 0 0L 105 0L 105 397L 0 397L 0 0Z"/>
<path id="path1_fill" d="M 0 0L 105 0L 105 1L 0 1L 0 0Z"/>
<path id="path2_fill" d="M 1.54688 7.22656L 5.21484 8.70898L 5.21484 9.85742L 0.421875 7.63672L 0.421875 6.78125L 5.21484 4.56641L 5.21484 5.71484L 1.54688 7.22656ZM 13.3535 11L 12.2637 11L 12.2637 3.77539L 10.0781 4.57812L 10.0781 3.59375L 13.1836 2.42773L 13.3535 2.42773L 13.3535 11ZM 17.6602 4.66016L 17.6895 5.36328C 18.1543 4.81641 18.7812 4.54297 19.5703 4.54297C 20.457 4.54297 21.0605 4.88281 21.3809 5.5625C 21.5918 5.25781 21.8652 5.01172 22.2012 4.82422C 22.541 4.63672 22.9414 4.54297 23.4023 4.54297C 24.793 4.54297 25.5 5.2793 25.5234 6.75195L 25.5234 11L 24.4395 11L 24.4395 6.81641C 24.4395 6.36328 24.3359 6.02539 24.1289 5.80273C 23.9219 5.57617 23.5742 5.46289 23.0859 5.46289C 22.6836 5.46289 22.3496 5.58398 22.084 5.82617C 21.8184 6.06445 21.6641 6.38672 21.6211 6.79297L 21.6211 11L 20.5312 11L 20.5312 6.8457C 20.5312 5.92383 20.0801 5.46289 19.1777 5.46289C 18.4668 5.46289 17.9805 5.76562 17.7188 6.37109L 17.7188 11L 16.6348 11L 16.6348 4.66016L 17.6602 4.66016ZM 30.8555 9.31836C 30.8555 9.02539 30.7441 8.79883 30.5215 8.63867C 30.3027 8.47461 29.918 8.33398 29.3672 8.2168C 28.8203 8.09961 28.3848 7.95898 28.0605 7.79492C 27.7402 7.63086 27.502 7.43555 27.3457 7.20898C 27.1934 6.98242 27.1172 6.71289 27.1172 6.40039C 27.1172 5.88086 27.3359 5.44141 27.7734 5.08203C 28.2148 4.72266 28.7773 4.54297 29.4609 4.54297C 30.1797 4.54297 30.7617 4.72852 31.207 5.09961C 31.6562 5.4707 31.8809 5.94531 31.8809 6.52344L 30.791 6.52344C 30.791 6.22656 30.6641 5.9707 30.4102 5.75586C 30.1602 5.54102 29.8438 5.43359 29.4609 5.43359C 29.0664 5.43359 28.7578 5.51953 28.5352 5.69141C 28.3125 5.86328 28.2012 6.08789 28.2012 6.36523C 28.2012 6.62695 28.3047 6.82422 28.5117 6.95703C 28.7188 7.08984 29.0918 7.2168 29.6309 7.33789C 30.1738 7.45898 30.6133 7.60352 30.9492 7.77148C 31.2852 7.93945 31.5332 8.14258 31.6934 8.38086C 31.8574 8.61523 31.9395 8.90234 31.9395 9.24219C 31.9395 9.80859 31.7129 10.2637 31.2598 10.6074C 30.8066 10.9473 30.2188 11.1172 29.4961 11.1172C 28.9883 11.1172 28.5391 11.0273 28.1484 10.8477C 27.7578 10.668 27.4512 10.418 27.2285 10.0977C 27.0098 9.77344 26.9004 9.42383 26.9004 9.04883L 27.9844 9.04883C 28.0039 9.41211 28.1484 9.70117 28.418 9.91602C 28.6914 10.127 29.0508 10.2324 29.4961 10.2324C 29.9062 10.2324 30.2344 10.1504 30.4805 9.98633C 30.7305 9.81836 30.8555 9.5957 30.8555 9.31836Z"/>
<path id="path3_fill" d="M 2.28516 6.20703L 3.09961 6.20703C 3.61133 6.19922 4.01367 6.06445 4.30664 5.80273C 4.59961 5.54102 4.74609 5.1875 4.74609 4.74219C 4.74609 3.74219 4.24805 3.24219 3.25195 3.24219C 2.7832 3.24219 2.4082 3.37695 2.12695 3.64648C 1.84961 3.91211 1.71094 4.26562 1.71094 4.70703L 0.626953 4.70703C 0.626953 4.03125 0.873047 3.4707 1.36523 3.02539C 1.86133 2.57617 2.49023 2.35156 3.25195 2.35156C 4.05664 2.35156 4.6875 2.56445 5.14453 2.99023C 5.60156 3.41602 5.83008 4.00781 5.83008 4.76562C 5.83008 5.13672 5.70898 5.49609 5.4668 5.84375C 5.22852 6.19141 4.90234 6.45117 4.48828 6.62305C 4.95703 6.77148 5.31836 7.01758 5.57227 7.36133C 5.83008 7.70508 5.95898 8.125 5.95898 8.62109C 5.95898 9.38672 5.70898 9.99414 5.20898 10.4434C 4.70898 10.8926 4.05859 11.1172 3.25781 11.1172C 2.45703 11.1172 1.80469 10.9004 1.30078 10.4668C 0.800781 10.0332 0.550781 9.46094 0.550781 8.75L 1.64062 8.75C 1.64062 9.19922 1.78711 9.55859 2.08008 9.82812C 2.37305 10.0977 2.76562 10.2324 3.25781 10.2324C 3.78125 10.2324 4.18164 10.0957 4.45898 9.82227C 4.73633 9.54883 4.875 9.15625 4.875 8.64453C 4.875 8.14844 4.72266 7.76758 4.41797 7.50195C 4.11328 7.23633 3.67383 7.09961 3.09961 7.0918L 2.28516 7.0918L 2.28516 6.20703ZM 11.6016 7.25C 11.375 7.51953 11.1035 7.73633 10.7871 7.90039C 10.4746 8.06445 10.1309 8.14648 9.75586 8.14648C 9.26367 8.14648 8.83398 8.02539 8.4668 7.7832C 8.10352 7.54102 7.82227 7.20117 7.62305 6.76367C 7.42383 6.32227 7.32422 5.83594 7.32422 5.30469C 7.32422 4.73438 7.43164 4.2207 7.64648 3.76367C 7.86523 3.30664 8.17383 2.95703 8.57227 2.71484C 8.9707 2.47266 9.43555 2.35156 9.9668 2.35156C 10.8105 2.35156 11.4746 2.66797 11.959 3.30078C 12.4473 3.92969 12.6914 4.78906 12.6914 5.87891L 12.6914 6.19531C 12.6914 7.85547 12.3633 9.06836 11.707 9.83398C 11.0508 10.5957 10.0605 10.9863 8.73633 11.0059L 8.52539 11.0059L 8.52539 10.0918L 8.75391 10.0918C 9.64844 10.0762 10.3359 9.84375 10.8164 9.39453C 11.2969 8.94141 11.5586 8.22656 11.6016 7.25ZM 9.93164 7.25C 10.2949 7.25 10.6289 7.13867 10.9336 6.91602C 11.2422 6.69336 11.4668 6.41797 11.6074 6.08984L 11.6074 5.65625C 11.6074 4.94531 11.4531 4.36719 11.1445 3.92188C 10.8359 3.47656 10.4453 3.25391 9.97266 3.25391C 9.49609 3.25391 9.11328 3.4375 8.82422 3.80469C 8.53516 4.16797 8.39062 4.64844 8.39062 5.24609C 8.39062 5.82812 8.5293 6.30859 8.80664 6.6875C 9.08789 7.0625 9.46289 7.25 9.93164 7.25ZM 19.6934 3.07812L 16.1602 11L 15.0234 11L 18.5449 3.35938L 13.9277 3.35938L 13.9277 2.46875L 19.6934 2.46875L 19.6934 3.07812ZM 22.0547 4.66016L 22.084 5.36328C 22.5488 4.81641 23.1758 4.54297 23.9648 4.54297C 24.8516 4.54297 25.4551 4.88281 25.7754 5.5625C 25.9863 5.25781 26.2598 5.01172 26.5957 4.82422C 26.9355 4.63672 27.3359 4.54297 27.7969 4.54297C 29.1875 4.54297 29.8945 5.2793 29.918 6.75195L 29.918 11L 28.834 11L 28.834 6.81641C 28.834 6.36328 28.7305 6.02539 28.5234 5.80273C 28.3164 5.57617 27.9688 5.46289 27.4805 5.46289C 27.0781 5.46289 26.7441 5.58398 26.4785 5.82617C 26.2129 6.06445 26.0586 6.38672 26.0156 6.79297L 26.0156 11L 24.9258 11L 24.9258 6.8457C 24.9258 5.92383 24.4746 5.46289 23.5723 5.46289C 22.8613 5.46289 22.375 5.76562 22.1133 6.37109L 22.1133 11L 21.0293 11L 21.0293 4.66016L 22.0547 4.66016ZM 35.25 9.31836C 35.25 9.02539 35.1387 8.79883 34.916 8.63867C 34.6973 8.47461 34.3125 8.33398 33.7617 8.2168C 33.2148 8.09961 32.7793 7.95898 32.4551 7.79492C 32.1348 7.63086 31.8965 7.43555 31.7402 7.20898C 31.5879 6.98242 31.5117 6.71289 31.5117 6.40039C 31.5117 5.88086 31.7305 5.44141 32.168 5.08203C 32.6094 4.72266 33.1719 4.54297 33.8555 4.54297C 34.5742 4.54297 35.1562 4.72852 35.6016 5.09961C 36.0508 5.4707 36.2754 5.94531 36.2754 6.52344L 35.1855 6.52344C 35.1855 6.22656 35.0586 5.9707 34.8047 5.75586C 34.5547 5.54102 34.2383 5.43359 33.8555 5.43359C 33.4609 5.43359 33.1523 5.51953 32.9297 5.69141C 32.707 5.86328 32.5957 6.08789 32.5957 6.36523C 32.5957 6.62695 32.6992 6.82422 32.9062 6.95703C 33.1133 7.08984 33.4863 7.2168 34.0254 7.33789C 34.5684 7.45898 35.0078 7.60352 35.3438 7.77148C 35.6797 7.93945 35.9277 8.14258 36.0879 8.38086C 36.252 8.61523 36.334 8.90234 36.334 9.24219C 36.334 9.80859 36.1074 10.2637 35.6543 10.6074C 35.2012 10.9473 34.6133 11.1172 33.8906 11.1172C 33.3828 11.1172 32.9336 11.0273 32.543 10.8477C 32.1523 10.668 31.8457 10.418 31.623 10.0977C 31.4043 9.77344 31.2949 9.42383 31.2949 9.04883L 32.3789 9.04883C 32.3984 9.41211 32.543 9.70117 32.8125 9.91602C 33.0859 10.127 33.4453 10.2324 33.8906 10.2324C 34.3008 10.2324 34.6289 10.1504 34.875 9.98633C 35.125 9.81836 35.25 9.5957 35.25 9.31836Z"/>
<path id="path4_stroke" d="M 440.354 0.353553C 440.549 0.158291 440.549 -0.158291 440.354 -0.353553L 437.172 -3.53553C 436.976 -3.7308 436.66 -3.7308 436.464 -3.53553C 436.269 -3.34027 436.269 -3.02369 436.464 -2.82843L 439.293 0L 436.464 2.82843C 436.269 3.02369 436.269 3.34027 436.464 3.53553C 436.66 3.7308 436.976 3.7308 437.172 3.53553L 440.354 0.353553ZM 0 0.5L 440 0.5L 440 -0.5L 0 -0.5L 0 0.5Z"/>
<path id="path5_stroke" d="M 370.354 0.353553C 370.549 0.158291 370.549 -0.158291 370.354 -0.353553L 367.172 -3.53553C 366.976 -3.7308 366.66 -3.7308 366.464 -3.53553C 366.269 -3.34027 366.269 -3.02369 366.464 -2.82843L 369.293 0L 366.464 2.82843C 366.269 3.02369 366.269 3.34027 366.464 3.53553C 366.66 3.7308 366.976 3.7308 367.172 3.53553L 370.354 0.353553ZM 0 0.5L 370 0.5L 370 -0.5L 0 -0.5L 0 0.5Z"/>
<path id="path6_fill" d="M 3.50391 7.19727C 2.53906 6.91992 1.83594 6.58008 1.39453 6.17773C 0.957031 5.77148 0.738281 5.27148 0.738281 4.67773C 0.738281 4.00586 1.00586 3.45117 1.54102 3.01367C 2.08008 2.57227 2.7793 2.35156 3.63867 2.35156C 4.22461 2.35156 4.74609 2.46484 5.20312 2.69141C 5.66406 2.91797 6.01953 3.23047 6.26953 3.62891C 6.52344 4.02734 6.65039 4.46289 6.65039 4.93555L 5.51953 4.93555C 5.51953 4.41992 5.35547 4.01562 5.02734 3.72266C 4.69922 3.42578 4.23633 3.27734 3.63867 3.27734C 3.08398 3.27734 2.65039 3.40039 2.33789 3.64648C 2.0293 3.88867 1.875 4.22656 1.875 4.66016C 1.875 5.00781 2.02148 5.30273 2.31445 5.54492C 2.61133 5.7832 3.11328 6.00195 3.82031 6.20117C 4.53125 6.40039 5.08594 6.62109 5.48438 6.86328C 5.88672 7.10156 6.18359 7.38086 6.375 7.70117C 6.57031 8.02148 6.66797 8.39844 6.66797 8.83203C 6.66797 9.52344 6.39844 10.0781 5.85938 10.4961C 5.32031 10.9102 4.59961 11.1172 3.69727 11.1172C 3.11133 11.1172 2.56445 11.0059 2.05664 10.7832C 1.54883 10.5566 1.15625 10.248 0.878906 9.85742C 0.605469 9.4668 0.46875 9.02344 0.46875 8.52734L 1.59961 8.52734C 1.59961 9.04297 1.78906 9.45117 2.16797 9.75195C 2.55078 10.0488 3.06055 10.1973 3.69727 10.1973C 4.29102 10.1973 4.74609 10.0762 5.0625 9.83398C 5.37891 9.5918 5.53711 9.26172 5.53711 8.84375C 5.53711 8.42578 5.39062 8.10352 5.09766 7.87695C 4.80469 7.64648 4.27344 7.41992 3.50391 7.19727ZM 10.5762 11.1172C 9.7168 11.1172 9.01758 10.8359 8.47852 10.2734C 7.93945 9.70703 7.66992 8.95117 7.66992 8.00586L 7.66992 7.80664C 7.66992 7.17773 7.78906 6.61719 8.02734 6.125C 8.26953 5.62891 8.60547 5.24219 9.03516 4.96484C 9.46875 4.68359 9.9375 4.54297 10.4414 4.54297C 11.2656 4.54297 11.9062 4.81445 12.3633 5.35742C 12.8203 5.90039 13.0488 6.67773 13.0488 7.68945L 13.0488 8.14062L 8.75391 8.14062C 8.76953 8.76562 8.95117 9.27148 9.29883 9.6582C 9.65039 10.041 10.0957 10.2324 10.6348 10.2324C 11.0176 10.2324 11.3418 10.1543 11.6074 9.99805C 11.873 9.8418 12.1055 9.63477 12.3047 9.37695L 12.9668 9.89258C 12.4355 10.709 11.6387 11.1172 10.5762 11.1172ZM 10.4414 5.43359C 10.0039 5.43359 9.63672 5.59375 9.33984 5.91406C 9.04297 6.23047 8.85938 6.67578 8.78906 7.25L 11.9648 7.25L 11.9648 7.16797C 11.9336 6.61719 11.7852 6.19141 11.5195 5.89062C 11.2539 5.58594 10.8945 5.43359 10.4414 5.43359ZM 15.7793 3.125L 15.7793 4.66016L 16.9629 4.66016L 16.9629 5.49805L 15.7793 5.49805L 15.7793 9.42969C 15.7793 9.68359 15.832 9.875 15.9375 10.0039C 16.043 10.1289 16.2227 10.1914 16.4766 10.1914C 16.6016 10.1914 16.7734 10.168 16.9922 10.1211L 16.9922 11C 16.707 11.0781 16.4297 11.1172 16.1602 11.1172C 15.6758 11.1172 15.3105 10.9707 15.0645 10.6777C 14.8184 10.3848 14.6953 9.96875 14.6953 9.42969L 14.6953 5.49805L 13.541 5.49805L 13.541 4.66016L 14.6953 4.66016L 14.6953 3.125L 15.7793 3.125ZM 19.7051 3.125L 19.7051 4.66016L 20.8887 4.66016L 20.8887 5.49805L 19.7051 5.49805L 19.7051 9.42969C 19.7051 9.68359 19.7578 9.875 19.8633 10.0039C 19.9688 10.1289 20.1484 10.1914 20.4023 10.1914C 20.5273 10.1914 20.6992 10.168 20.918 10.1211L 20.918 11C 20.6328 11.0781 20.3555 11.1172 20.0859 11.1172C 19.6016 11.1172 19.2363 10.9707 18.9902 10.6777C 18.7441 10.3848 18.6211 9.96875 18.6211 9.42969L 18.6211 5.49805L 17.4668 5.49805L 17.4668 4.66016L 18.6211 4.66016L 18.6211 3.125L 19.7051 3.125ZM 23.3379 11L 22.2539 11L 22.2539 4.66016L 23.3379 4.66016L 23.3379 11ZM 22.166 2.97852C 22.166 2.80273 22.2188 2.6543 22.3242 2.5332C 22.4336 2.41211 22.5938 2.35156 22.8047 2.35156C 23.0156 2.35156 23.1758 2.41211 23.2852 2.5332C 23.3945 2.6543 23.4492 2.80273 23.4492 2.97852C 23.4492 3.1543 23.3945 3.30078 23.2852 3.41797C 23.1758 3.53516 23.0156 3.59375 22.8047 3.59375C 22.5938 3.59375 22.4336 3.53516 22.3242 3.41797C 22.2188 3.30078 22.166 3.1543 22.166 2.97852ZM 26.1035 4.66016L 26.1387 5.45703C 26.623 4.84766 27.2559 4.54297 28.0371 4.54297C 29.377 4.54297 30.0527 5.29883 30.0645 6.81055L 30.0645 11L 28.9805 11L 28.9805 6.80469C 28.9766 6.34766 28.8711 6.00977 28.6641 5.79102C 28.4609 5.57227 28.1426 5.46289 27.709 5.46289C 27.3574 5.46289 27.0488 5.55664 26.7832 5.74414C 26.5176 5.93164 26.3105 6.17773 26.1621 6.48242L 26.1621 11L 25.0781 11L 25.0781 4.66016L 26.1035 4.66016ZM 31.4414 7.77734C 31.4414 6.78906 31.6699 6.00391 32.127 5.42188C 32.584 4.83594 33.1895 4.54297 33.9434 4.54297C 34.7168 4.54297 35.3203 4.81641 35.7539 5.36328L 35.8066 4.66016L 36.7969 4.66016L 36.7969 10.8477C 36.7969 11.668 36.5527 12.3145 36.0645 12.7871C 35.5801 13.2598 34.9277 13.4961 34.1074 13.4961C 33.6504 13.4961 33.2031 13.3984 32.7656 13.2031C 32.3281 13.0078 31.9941 12.7402 31.7637 12.4004L 32.3262 11.75C 32.791 12.3242 33.3594 12.6113 34.0312 12.6113C 34.5586 12.6113 34.9688 12.4629 35.2617 12.166C 35.5586 11.8691 35.707 11.4512 35.707 10.9121L 35.707 10.3672C 35.2734 10.8672 34.6816 11.1172 33.9316 11.1172C 33.1895 11.1172 32.5879 10.8184 32.127 10.2207C 31.6699 9.62305 31.4414 8.80859 31.4414 7.77734ZM 32.5312 7.90039C 32.5312 8.61523 32.6777 9.17773 32.9707 9.58789C 33.2637 9.99414 33.6738 10.1973 34.2012 10.1973C 34.8848 10.1973 35.3867 9.88672 35.707 9.26562L 35.707 6.37109C 35.375 5.76562 34.877 5.46289 34.2129 5.46289C 33.6855 5.46289 33.2734 5.66797 32.9766 6.07812C 32.6797 6.48828 32.5312 7.0957 32.5312 7.90039ZM 43.5059 9.5293L 45.0762 4.66016L 46.1836 4.66016L 43.9102 11L 43.084 11L 40.7871 4.66016L 41.8945 4.66016L 43.5059 9.5293ZM 49.7754 11.1172C 48.916 11.1172 48.2168 10.8359 47.6777 10.2734C 47.1387 9.70703 46.8691 8.95117 46.8691 8.00586L 46.8691 7.80664C 46.8691 7.17773 46.9883 6.61719 47.2266 6.125C 47.4688 5.62891 47.8047 5.24219 48.2344 4.96484C 48.668 4.68359 49.1367 4.54297 49.6406 4.54297C 50.4648 4.54297 51.1055 4.81445 51.5625 5.35742C 52.0195 5.90039 52.248 6.67773 52.248 7.68945L 52.248 8.14062L 47.9531 8.14062C 47.9688 8.76562 48.1504 9.27148 48.498 9.6582C 48.8496 10.041 49.2949 10.2324 49.834 10.2324C 50.2168 10.2324 50.541 10.1543 50.8066 9.99805C 51.0723 9.8418 51.3047 9.63477 51.5039 9.37695L 52.166 9.89258C 51.6348 10.709 50.8379 11.1172 49.7754 11.1172ZM 49.6406 5.43359C 49.2031 5.43359 48.8359 5.59375 48.5391 5.91406C 48.2422 6.23047 48.0586 6.67578 47.9883 7.25L 51.1641 7.25L 51.1641 7.16797C 51.1328 6.61719 50.9844 6.19141 50.7188 5.89062C 50.4531 5.58594 50.0938 5.43359 49.6406 5.43359ZM 56.5723 5.63281C 56.4082 5.60547 56.2305 5.5918 56.0391 5.5918C 55.3281 5.5918 54.8457 5.89453 54.5918 6.5L 54.5918 11L 53.5078 11L 53.5078 4.66016L 54.5625 4.66016L 54.5801 5.39258C 54.9355 4.82617 55.4395 4.54297 56.0918 4.54297C 56.3027 4.54297 56.4629 4.57031 56.5723 4.625L 56.5723 5.63281ZM 59.3379 3.125L 59.3379 4.66016L 60.5215 4.66016L 60.5215 5.49805L 59.3379 5.49805L 59.3379 9.42969C 59.3379 9.68359 59.3906 9.875 59.4961 10.0039C 59.6016 10.1289 59.7812 10.1914 60.0352 10.1914C 60.1602 10.1914 60.332 10.168 60.5508 10.1211L 60.5508 11C 60.2656 11.0781 59.9883 11.1172 59.7188 11.1172C 59.2344 11.1172 58.8691 10.9707 58.623 10.6777C 58.377 10.3848 58.2539 9.96875 58.2539 9.42969L 58.2539 5.49805L 57.0996 5.49805L 57.0996 4.66016L 58.2539 4.66016L 58.2539 3.125L 59.3379 3.125ZM 64.4238 11.1172C 63.5645 11.1172 62.8652 10.8359 62.3262 10.2734C 61.7871 9.70703 61.5176 8.95117 61.5176 8.00586L 61.5176 7.80664C 61.5176 7.17773 61.6367 6.61719 61.875 6.125C 62.1172 5.62891 62.4531 5.24219 62.8828 4.96484C 63.3164 4.68359 63.7852 4.54297 64.2891 4.54297C 65.1133 4.54297 65.7539 4.81445 66.2109 5.35742C 66.668 5.90039 66.8965 6.67773 66.8965 7.68945L 66.8965 8.14062L 62.6016 8.14062C 62.6172 8.76562 62.7988 9.27148 63.1465 9.6582C 63.498 10.041 63.9434 10.2324 64.4824 10.2324C 64.8652 10.2324 65.1895 10.1543 65.4551 9.99805C 65.7207 9.8418 65.9531 9.63477 66.1523 9.37695L 66.8145 9.89258C 66.2832 10.709 65.4863 11.1172 64.4238 11.1172ZM 64.2891 5.43359C 63.8516 5.43359 63.4844 5.59375 63.1875 5.91406C 62.8906 6.23047 62.707 6.67578 62.6367 7.25L 65.8125 7.25L 65.8125 7.16797C 65.7812 6.61719 65.6328 6.19141 65.3672 5.89062C 65.1016 5.58594 64.7422 5.43359 64.2891 5.43359ZM 70.2832 6.97461L 71.6895 4.66016L 72.9551 4.66016L 70.8809 7.79492L 73.0195 11L 71.7656 11L 70.3008 8.62695L 68.8359 11L 67.5762 11L 69.7148 7.79492L 67.6406 4.66016L 68.8945 4.66016L 70.2832 6.97461ZM 6.17578 21.9004C 6.17578 22.8652 5.95508 23.6426 5.51367 24.2324C 5.07227 24.8223 4.47461 25.1172 3.7207 25.1172C 2.95117 25.1172 2.3457 24.873 1.9043 24.3848L 1.9043 27.4375L 0.820312 27.4375L 0.820312 18.6602L 1.81055 18.6602L 1.86328 19.3633C 2.30469 18.8164 2.91797 18.543 3.70312 18.543C 4.46484 18.543 5.06641 18.8301 5.50781 19.4043C 5.95312 19.9785 6.17578 20.7773 6.17578 21.8008L 6.17578 21.9004ZM 5.0918 21.7773C 5.0918 21.0625 4.93945 20.498 4.63477 20.084C 4.33008 19.6699 3.91211 19.4629 3.38086 19.4629C 2.72461 19.4629 2.23242 19.7539 1.9043 20.3359L 1.9043 23.3652C 2.22852 23.9434 2.72461 24.2324 3.39258 24.2324C 3.91211 24.2324 4.32422 24.0273 4.62891 23.6172C 4.9375 23.2031 5.0918 22.5898 5.0918 21.7773ZM 7.27148 21.7715C 7.27148 21.1504 7.39258 20.5918 7.63477 20.0957C 7.88086 19.5996 8.2207 19.2168 8.6543 18.9473C 9.0918 18.6777 9.58984 18.543 10.1484 18.543C 11.0117 18.543 11.709 18.8418 12.2402 19.4395C 12.7754 20.0371 13.043 20.832 13.043 21.8242L 13.043 21.9004C 13.043 22.5176 12.9238 23.0723 12.6855 23.5645C 12.4512 24.0527 12.1133 24.4336 11.6719 24.707C 11.2344 24.9805 10.7305 25.1172 10.1602 25.1172C 9.30078 25.1172 8.60352 24.8184 8.06836 24.2207C 7.53711 23.623 7.27148 22.832 7.27148 21.8477L 7.27148 21.7715ZM 8.36133 21.9004C 8.36133 22.6035 8.52344 23.168 8.84766 23.5938C 9.17578 24.0195 9.61328 24.2324 10.1602 24.2324C 10.7109 24.2324 11.1484 24.0176 11.4727 23.5879C 11.7969 23.1543 11.959 22.5488 11.959 21.7715C 11.959 21.0762 11.793 20.5137 11.4609 20.084C 11.1328 19.6504 10.6953 19.4336 10.1484 19.4336C 9.61328 19.4336 9.18164 19.6465 8.85352 20.0723C 8.52539 20.498 8.36133 21.1074 8.36133 21.9004ZM 18.0938 23.3184C 18.0938 23.0254 17.9824 22.7988 17.7598 22.6387C 17.541 22.4746 17.1562 22.334 16.6055 22.2168C 16.0586 22.0996 15.623 21.959 15.2988 21.7949C 14.9785 21.6309 14.7402 21.4355 14.584 21.209C 14.4316 20.9824 14.3555 20.7129 14.3555 20.4004C 14.3555 19.8809 14.5742 19.4414 15.0117 19.082C 15.4531 18.7227 16.0156 18.543 16.6992 18.543C 17.418 18.543 18 18.7285 18.4453 19.0996C 18.8945 19.4707 19.1191 19.9453 19.1191 20.5234L 18.0293 20.5234C 18.0293 20.2266 17.9023 19.9707 17.6484 19.7559C 17.3984 19.541 17.082 19.4336 16.6992 19.4336C 16.3047 19.4336 15.9961 19.5195 15.7734 19.6914C 15.5508 19.8633 15.4395 20.0879 15.4395 20.3652C 15.4395 20.627 15.543 20.8242 15.75 20.957C 15.957 21.0898 16.3301 21.2168 16.8691 21.3379C 17.4121 21.459 17.8516 21.6035 18.1875 21.7715C 18.5234 21.9395 18.7715 22.1426 18.9316 22.3809C 19.0957 22.6152 19.1777 22.9023 19.1777 23.2422C 19.1777 23.8086 18.9512 24.2637 18.498 24.6074C 18.0449 24.9473 17.457 25.1172 16.7344 25.1172C 16.2266 25.1172 15.7773 25.0273 15.3867 24.8477C 14.9961 24.668 14.6895 24.418 14.4668 24.0977C 14.248 23.7734 14.1387 23.4238 14.1387 23.0488L 15.2227 23.0488C 15.2422 23.4121 15.3867 23.7012 15.6562 23.916C 15.9297 24.127 16.2891 24.2324 16.7344 24.2324C 17.1445 24.2324 17.4727 24.1504 17.7188 23.9863C 17.9688 23.8184 18.0938 23.5957 18.0938 23.3184ZM 21.7676 25L 20.6836 25L 20.6836 18.6602L 21.7676 18.6602L 21.7676 25ZM 20.5957 16.9785C 20.5957 16.8027 20.6484 16.6543 20.7539 16.5332C 20.8633 16.4121 21.0234 16.3516 21.2344 16.3516C 21.4453 16.3516 21.6055 16.4121 21.7148 16.5332C 21.8242 16.6543 21.8789 16.8027 21.8789 16.9785C 21.8789 17.1543 21.8242 17.3008 21.7148 17.418C 21.6055 17.5352 21.4453 17.5938 21.2344 17.5938C 21.0234 17.5938 20.8633 17.5352 20.7539 17.418C 20.6484 17.3008 20.5957 17.1543 20.5957 16.9785ZM 24.9785 17.125L 24.9785 18.6602L 26.1621 18.6602L 26.1621 19.498L 24.9785 19.498L 24.9785 23.4297C 24.9785 23.6836 25.0312 23.875 25.1367 24.0039C 25.2422 24.1289 25.4219 24.1914 25.6758 24.1914C 25.8008 24.1914 25.9727 24.168 26.1914 24.1211L 26.1914 25C 25.9062 25.0781 25.6289 25.1172 25.3594 25.1172C 24.875 25.1172 24.5098 24.9707 24.2637 24.6777C 24.0176 24.3848 23.8945 23.9688 23.8945 23.4297L 23.8945 19.498L 22.7402 19.498L 22.7402 18.6602L 23.8945 18.6602L 23.8945 17.125L 24.9785 17.125ZM 28.6113 25L 27.5273 25L 27.5273 18.6602L 28.6113 18.6602L 28.6113 25ZM 27.4395 16.9785C 27.4395 16.8027 27.4922 16.6543 27.5977 16.5332C 27.707 16.4121 27.8672 16.3516 28.0781 16.3516C 28.2891 16.3516 28.4492 16.4121 28.5586 16.5332C 28.668 16.6543 28.7227 16.8027 28.7227 16.9785C 28.7227 17.1543 28.668 17.3008 28.5586 17.418C 28.4492 17.5352 28.2891 17.5938 28.0781 17.5938C 27.8672 17.5938 27.707 17.5352 27.5977 17.418C 27.4922 17.3008 27.4395 17.1543 27.4395 16.9785ZM 30.0645 21.7715C 30.0645 21.1504 30.1855 20.5918 30.4277 20.0957C 30.6738 19.5996 31.0137 19.2168 31.4473 18.9473C 31.8848 18.6777 32.3828 18.543 32.9414 18.543C 33.8047 18.543 34.502 18.8418 35.0332 19.4395C 35.5684 20.0371 35.8359 20.832 35.8359 21.8242L 35.8359 21.9004C 35.8359 22.5176 35.7168 23.0723 35.4785 23.5645C 35.2441 24.0527 34.9062 24.4336 34.4648 24.707C 34.0273 24.9805 33.5234 25.1172 32.9531 25.1172C 32.0938 25.1172 31.3965 24.8184 30.8613 24.2207C 30.3301 23.623 30.0645 22.832 30.0645 21.8477L 30.0645 21.7715ZM 31.1543 21.9004C 31.1543 22.6035 31.3164 23.168 31.6406 23.5938C 31.9688 24.0195 32.4062 24.2324 32.9531 24.2324C 33.5039 24.2324 33.9414 24.0176 34.2656 23.5879C 34.5898 23.1543 34.752 22.5488 34.752 21.7715C 34.752 21.0762 34.5859 20.5137 34.2539 20.084C 33.9258 19.6504 33.4883 19.4336 32.9414 19.4336C 32.4062 19.4336 31.9746 19.6465 31.6465 20.0723C 31.3184 20.498 31.1543 21.1074 31.1543 21.9004ZM 38.2207 18.6602L 38.2559 19.457C 38.7402 18.8477 39.373 18.543 40.1543 18.543C 41.4941 18.543 42.1699 19.2988 42.1816 20.8105L 42.1816 25L 41.0977 25L 41.0977 20.8047C 41.0938 20.3477 40.9883 20.0098 40.7812 19.791C 40.5781 19.5723 40.2598 19.4629 39.8262 19.4629C 39.4746 19.4629 39.166 19.5566 38.9004 19.7441C 38.6348 19.9316 38.4277 20.1777 38.2793 20.4824L 38.2793 25L 37.1953 25L 37.1953 18.6602L 38.2207 18.6602ZM 47.5078 23.3184C 47.5078 23.0254 47.3965 22.7988 47.1738 22.6387C 46.9551 22.4746 46.5703 22.334 46.0195 22.2168C 45.4727 22.0996 45.0371 21.959 44.7129 21.7949C 44.3926 21.6309 44.1543 21.4355 43.998 21.209C 43.8457 20.9824 43.7695 20.7129 43.7695 20.4004C 43.7695 19.8809 43.9883 19.4414 44.4258 19.082C 44.8672 18.7227 45.4297 18.543 46.1133 18.543C 46.832 18.543 47.4141 18.7285 47.8594 19.0996C 48.3086 19.4707 48.5332 19.9453 48.5332 20.5234L 47.4434 20.5234C 47.4434 20.2266 47.3164 19.9707 47.0625 19.7559C 46.8125 19.541 46.4961 19.4336 46.1133 19.4336C 45.7188 19.4336 45.4102 19.5195 45.1875 19.6914C 44.9648 19.8633 44.8535 20.0879 44.8535 20.3652C 44.8535 20.627 44.957 20.8242 45.1641 20.957C 45.3711 21.0898 45.7441 21.2168 46.2832 21.3379C 46.8262 21.459 47.2656 21.6035 47.6016 21.7715C 47.9375 21.9395 48.1855 22.1426 48.3457 22.3809C 48.5098 22.6152 48.5918 22.9023 48.5918 23.2422C 48.5918 23.8086 48.3652 24.2637 47.9121 24.6074C 47.459 24.9473 46.8711 25.1172 46.1484 25.1172C 45.6406 25.1172 45.1914 25.0273 44.8008 24.8477C 44.4102 24.668 44.1035 24.418 43.8809 24.0977C 43.6621 23.7734 43.5527 23.4238 43.5527 23.0488L 44.6367 23.0488C 44.6562 23.4121 44.8008 23.7012 45.0703 23.916C 45.3438 24.127 45.7031 24.2324 46.1484 24.2324C 46.5586 24.2324 46.8867 24.1504 47.1328 23.9863C 47.3828 23.8184 47.5078 23.5957 47.5078 23.3184ZM 54.1582 25L 53.0742 25L 53.0742 18.6602L 54.1582 18.6602L 54.1582 25ZM 52.9863 16.9785C 52.9863 16.8027 53.0391 16.6543 53.1445 16.5332C 53.2539 16.4121 53.4141 16.3516 53.625 16.3516C 53.8359 16.3516 53.9961 16.4121 54.1055 16.5332C 54.2148 16.6543 54.2695 16.8027 54.2695 16.9785C 54.2695 17.1543 54.2148 17.3008 54.1055 17.418C 53.9961 17.5352 53.8359 17.5938 53.625 17.5938C 53.4141 17.5938 53.2539 17.5352 53.1445 17.418C 53.0391 17.3008 52.9863 17.1543 52.9863 16.9785ZM 56.9238 18.6602L 56.959 19.457C 57.4434 18.8477 58.0762 18.543 58.8574 18.543C 60.1973 18.543 60.873 19.2988 60.8848 20.8105L 60.8848 25L 59.8008 25L 59.8008 20.8047C 59.7969 20.3477 59.6914 20.0098 59.4844 19.791C 59.2812 19.5723 58.9629 19.4629 58.5293 19.4629C 58.1777 19.4629 57.8691 19.5566 57.6035 19.7441C 57.3379 19.9316 57.1309 20.1777 56.9824 20.4824L 56.9824 25L 55.8984 25L 55.8984 18.6602L 56.9238 18.6602ZM 69.2402 16.4688L 70.3711 16.4688L 70.3711 22.5098C 70.3711 23.3262 70.125 23.9648 69.6328 24.4258C 69.1445 24.8867 68.4922 25.1172 67.6758 25.1172C 66.8281 25.1172 66.168 24.9004 65.6953 24.4668C 65.2227 24.0332 64.9863 23.4258 64.9863 22.6445L 66.1113 22.6445C 66.1113 23.1328 66.2441 23.5137 66.5098 23.7871C 66.7793 24.0605 67.168 24.1973 67.6758 24.1973C 68.1406 24.1973 68.5156 24.0508 68.8008 23.7578C 69.0898 23.4648 69.2363 23.0547 69.2402 22.5273L 69.2402 16.4688ZM 74.8008 21.1973C 73.8359 20.9199 73.1328 20.5801 72.6914 20.1777C 72.2539 19.7715 72.0352 19.2715 72.0352 18.6777C 72.0352 18.0059 72.3027 17.4512 72.8379 17.0137C 73.377 16.5723 74.0762 16.3516 74.9355 16.3516C 75.5215 16.3516 76.043 16.4648 76.5 16.6914C 76.9609 16.918 77.3164 17.2305 77.5664 17.6289C 77.8203 18.0273 77.9473 18.4629 77.9473 18.9355L 76.8164 18.9355C 76.8164 18.4199 76.6523 18.0156 76.3242 17.7227C 75.9961 17.4258 75.5332 17.2773 74.9355 17.2773C 74.3809 17.2773 73.9473 17.4004 73.6348 17.6465C 73.3262 17.8887 73.1719 18.2266 73.1719 18.6602C 73.1719 19.0078 73.3184 19.3027 73.6113 19.5449C 73.9082 19.7832 74.4102 20.002 75.1172 20.2012C 75.8281 20.4004 76.3828 20.6211 76.7812 20.8633C 77.1836 21.1016 77.4805 21.3809 77.6719 21.7012C 77.8672 22.0215 77.9648 22.3984 77.9648 22.832C 77.9648 23.5234 77.6953 24.0781 77.1562 24.4961C 76.6172 24.9102 75.8965 25.1172 74.9941 25.1172C 74.4082 25.1172 73.8613 25.0059 73.3535 24.7832C 72.8457 24.5566 72.4531 24.248 72.1758 23.8574C 71.9023 23.4668 71.7656 23.0234 71.7656 22.5273L 72.8965 22.5273C 72.8965 23.043 73.0859 23.4512 73.4648 23.752C 73.8477 24.0488 74.3574 24.1973 74.9941 24.1973C 75.5879 24.1973 76.043 24.0762 76.3594 23.834C 76.6758 23.5918 76.834 23.2617 76.834 22.8438C 76.834 22.4258 76.6875 22.1035 76.3945 21.877C 76.1016 21.6465 75.5703 21.4199 74.8008 21.1973Z"/>
<path id="path7_fill" d="M 2.11523 7.66016L 2.11523 11L 0.990234 11L 0.990234 2.46875L 4.13672 2.46875C 5.07031 2.46875 5.80078 2.70703 6.32812 3.18359C 6.85938 3.66016 7.125 4.29102 7.125 5.07617C 7.125 5.9043 6.86523 6.54297 6.3457 6.99219C 5.83008 7.4375 5.08984 7.66016 4.125 7.66016L 2.11523 7.66016ZM 2.11523 6.74023L 4.13672 6.74023C 4.73828 6.74023 5.19922 6.59961 5.51953 6.31836C 5.83984 6.0332 6 5.62305 6 5.08789C 6 4.58008 5.83984 4.17383 5.51953 3.86914C 5.19922 3.56445 4.75977 3.40625 4.20117 3.39453L 2.11523 3.39453L 2.11523 6.74023ZM 12.2344 11C 12.1719 10.875 12.1211 10.6523 12.082 10.332C 11.5781 10.8555 10.9766 11.1172 10.2773 11.1172C 9.65234 11.1172 9.13867 10.9414 8.73633 10.5898C 8.33789 10.2344 8.13867 9.78516 8.13867 9.24219C 8.13867 8.58203 8.38867 8.07031 8.88867 7.70703C 9.39258 7.33984 10.0996 7.15625 11.0098 7.15625L 12.0645 7.15625L 12.0645 6.6582C 12.0645 6.2793 11.9512 5.97852 11.7246 5.75586C 11.498 5.5293 11.1641 5.41602 10.7227 5.41602C 10.3359 5.41602 10.0117 5.51367 9.75 5.70898C 9.48828 5.9043 9.35742 6.14062 9.35742 6.41797L 8.26758 6.41797C 8.26758 6.10156 8.37891 5.79688 8.60156 5.50391C 8.82812 5.20703 9.13281 4.97266 9.51562 4.80078C 9.90234 4.62891 10.3262 4.54297 10.7871 4.54297C 11.5176 4.54297 12.0898 4.72656 12.5039 5.09375C 12.918 5.45703 13.1328 5.95898 13.1484 6.59961L 13.1484 9.51758C 13.1484 10.0996 13.2227 10.5625 13.3711 10.9062L 13.3711 11L 12.2344 11ZM 10.4355 10.1738C 10.7754 10.1738 11.0977 10.0859 11.4023 9.91016C 11.707 9.73438 11.9277 9.50586 12.0645 9.22461L 12.0645 7.92383L 11.2148 7.92383C 9.88672 7.92383 9.22266 8.3125 9.22266 9.08984C 9.22266 9.42969 9.33594 9.69531 9.5625 9.88672C 9.78906 10.0781 10.0801 10.1738 10.4355 10.1738ZM 17.9121 5.63281C 17.748 5.60547 17.5703 5.5918 17.3789 5.5918C 16.668 5.5918 16.1855 5.89453 15.9316 6.5L 15.9316 11L 14.8477 11L 14.8477 4.66016L 15.9023 4.66016L 15.9199 5.39258C 16.2754 4.82617 16.7793 4.54297 17.4316 4.54297C 17.6426 4.54297 17.8027 4.57031 17.9121 4.625L 17.9121 5.63281ZM 22.6055 9.31836C 22.6055 9.02539 22.4941 8.79883 22.2715 8.63867C 22.0527 8.47461 21.668 8.33398 21.1172 8.2168C 20.5703 8.09961 20.1348 7.95898 19.8105 7.79492C 19.4902 7.63086 19.252 7.43555 19.0957 7.20898C 18.9434 6.98242 18.8672 6.71289 18.8672 6.40039C 18.8672 5.88086 19.0859 5.44141 19.5234 5.08203C 19.9648 4.72266 20.5273 4.54297 21.2109 4.54297C 21.9297 4.54297 22.5117 4.72852 22.957 5.09961C 23.4062 5.4707 23.6309 5.94531 23.6309 6.52344L 22.541 6.52344C 22.541 6.22656 22.4141 5.9707 22.1602 5.75586C 21.9102 5.54102 21.5938 5.43359 21.2109 5.43359C 20.8164 5.43359 20.5078 5.51953 20.2852 5.69141C 20.0625 5.86328 19.9512 6.08789 19.9512 6.36523C 19.9512 6.62695 20.0547 6.82422 20.2617 6.95703C 20.4688 7.08984 20.8418 7.2168 21.3809 7.33789C 21.9238 7.45898 22.3633 7.60352 22.6992 7.77148C 23.0352 7.93945 23.2832 8.14258 23.4434 8.38086C 23.6074 8.61523 23.6895 8.90234 23.6895 9.24219C 23.6895 9.80859 23.4629 10.2637 23.0098 10.6074C 22.5566 10.9473 21.9688 11.1172 21.2461 11.1172C 20.7383 11.1172 20.2891 11.0273 19.8984 10.8477C 19.5078 10.668 19.2012 10.418 18.9785 10.0977C 18.7598 9.77344 18.6504 9.42383 18.6504 9.04883L 19.7344 9.04883C 19.7539 9.41211 19.8984 9.70117 20.168 9.91602C 20.4414 10.127 20.8008 10.2324 21.2461 10.2324C 21.6562 10.2324 21.9844 10.1504 22.2305 9.98633C 22.4805 9.81836 22.6055 9.5957 22.6055 9.31836ZM 26.2793 11L 25.1953 11L 25.1953 4.66016L 26.2793 4.66016L 26.2793 11ZM 25.1074 2.97852C 25.1074 2.80273 25.1602 2.6543 25.2656 2.5332C 25.375 2.41211 25.5352 2.35156 25.7461 2.35156C 25.957 2.35156 26.1172 2.41211 26.2266 2.5332C 26.3359 2.6543 26.3906 2.80273 26.3906 2.97852C 26.3906 3.1543 26.3359 3.30078 26.2266 3.41797C 26.1172 3.53516 25.957 3.59375 25.7461 3.59375C 25.5352 3.59375 25.375 3.53516 25.2656 3.41797C 25.1602 3.30078 25.1074 3.1543 25.1074 2.97852ZM 29.0449 4.66016L 29.0801 5.45703C 29.5645 4.84766 30.1973 4.54297 30.9785 4.54297C 32.3184 4.54297 32.9941 5.29883 33.0059 6.81055L 33.0059 11L 31.9219 11L 31.9219 6.80469C 31.918 6.34766 31.8125 6.00977 31.6055 5.79102C 31.4023 5.57227 31.084 5.46289 30.6504 5.46289C 30.2988 5.46289 29.9902 5.55664 29.7246 5.74414C 29.459 5.93164 29.252 6.17773 29.1035 6.48242L 29.1035 11L 28.0195 11L 28.0195 4.66016L 29.0449 4.66016ZM 34.3828 7.77734C 34.3828 6.78906 34.6113 6.00391 35.0684 5.42188C 35.5254 4.83594 36.1309 4.54297 36.8848 4.54297C 37.6582 4.54297 38.2617 4.81641 38.6953 5.36328L 38.748 4.66016L 39.7383 4.66016L 39.7383 10.8477C 39.7383 11.668 39.4941 12.3145 39.0059 12.7871C 38.5215 13.2598 37.8691 13.4961 37.0488 13.4961C 36.5918 13.4961 36.1445 13.3984 35.707 13.2031C 35.2695 13.0078 34.9355 12.7402 34.7051 12.4004L 35.2676 11.75C 35.7324 12.3242 36.3008 12.6113 36.9727 12.6113C 37.5 12.6113 37.9102 12.4629 38.2031 12.166C 38.5 11.8691 38.6484 11.4512 38.6484 10.9121L 38.6484 10.3672C 38.2148 10.8672 37.623 11.1172 36.873 11.1172C 36.1309 11.1172 35.5293 10.8184 35.0684 10.2207C 34.6113 9.62305 34.3828 8.80859 34.3828 7.77734ZM 35.4727 7.90039C 35.4727 8.61523 35.6191 9.17773 35.9121 9.58789C 36.2051 9.99414 36.6152 10.1973 37.1426 10.1973C 37.8262 10.1973 38.3281 9.88672 38.6484 9.26562L 38.6484 6.37109C 38.3164 5.76562 37.8184 5.46289 37.1543 5.46289C 36.627 5.46289 36.2148 5.66797 35.918 6.07812C 35.6211 6.48828 35.4727 7.0957 35.4727 7.90039ZM 46.9863 11.1172C 46.127 11.1172 45.4277 10.8359 44.8887 10.2734C 44.3496 9.70703 44.0801 8.95117 44.0801 8.00586L 44.0801 7.80664C 44.0801 7.17773 44.1992 6.61719 44.4375 6.125C 44.6797 5.62891 45.0156 5.24219 45.4453 4.96484C 45.8789 4.68359 46.3477 4.54297 46.8516 4.54297C 47.6758 4.54297 48.3164 4.81445 48.7734 5.35742C 49.2305 5.90039 49.459 6.67773 49.459 7.68945L 49.459 8.14062L 45.1641 8.14062C 45.1797 8.76562 45.3613 9.27148 45.709 9.6582C 46.0605 10.041 46.5059 10.2324 47.0449 10.2324C 47.4277 10.2324 47.752 10.1543 48.0176 9.99805C 48.2832 9.8418 48.5156 9.63477 48.7148 9.37695L 49.377 9.89258C 48.8457 10.709 48.0488 11.1172 46.9863 11.1172ZM 46.8516 5.43359C 46.4141 5.43359 46.0469 5.59375 45.75 5.91406C 45.4531 6.23047 45.2695 6.67578 45.1992 7.25L 48.375 7.25L 48.375 7.16797C 48.3438 6.61719 48.1953 6.19141 47.9297 5.89062C 47.6641 5.58594 47.3047 5.43359 46.8516 5.43359ZM 50.4551 7.77734C 50.4551 6.78125 50.6836 5.99414 51.1406 5.41602C 51.5977 4.83398 52.2109 4.54297 52.9805 4.54297C 53.7305 4.54297 54.3223 4.79492 54.7559 5.29883L 54.8027 4.66016L 55.7988 4.66016L 55.7988 13.4375L 54.7148 13.4375L 54.7148 10.4141C 54.2773 10.8828 53.6953 11.1172 52.9688 11.1172C 52.2031 11.1172 51.5918 10.8203 51.1348 10.2266C 50.6816 9.62891 50.4551 8.83789 50.4551 7.85352L 50.4551 7.77734ZM 51.5391 7.90039C 51.5391 8.62695 51.6914 9.19727 51.9961 9.61133C 52.3047 10.0254 52.7188 10.2324 53.2383 10.2324C 53.8828 10.2324 54.375 9.94727 54.7148 9.37695L 54.7148 6.27148C 54.3711 5.71289 53.8828 5.43359 53.25 5.43359C 52.7266 5.43359 52.3105 5.64258 52.002 6.06055C 51.6934 6.47461 51.5391 7.08789 51.5391 7.90039ZM 61.4531 10.373C 61.0312 10.8691 60.4121 11.1172 59.5957 11.1172C 58.9199 11.1172 58.4043 10.9219 58.0488 10.5312C 57.6973 10.1367 57.5195 9.55469 57.5156 8.78516L 57.5156 4.66016L 58.5996 4.66016L 58.5996 8.75586C 58.5996 9.7168 58.9902 10.1973 59.7715 10.1973C 60.5996 10.1973 61.1504 9.88867 61.4238 9.27148L 61.4238 4.66016L 62.5078 4.66016L 62.5078 11L 61.4766 11L 61.4531 10.373ZM 68.0742 11C 68.0117 10.875 67.9609 10.6523 67.9219 10.332C 67.418 10.8555 66.8164 11.1172 66.1172 11.1172C 65.4922 11.1172 64.9785 10.9414 64.5762 10.5898C 64.1777 10.2344 63.9785 9.78516 63.9785 9.24219C 63.9785 8.58203 64.2285 8.07031 64.7285 7.70703C 65.2324 7.33984 65.9395 7.15625 66.8496 7.15625L 67.9043 7.15625L 67.9043 6.6582C 67.9043 6.2793 67.791 5.97852 67.5645 5.75586C 67.3379 5.5293 67.0039 5.41602 66.5625 5.41602C 66.1758 5.41602 65.8516 5.51367 65.5898 5.70898C 65.3281 5.9043 65.1973 6.14062 65.1973 6.41797L 64.1074 6.41797C 64.1074 6.10156 64.2188 5.79688 64.4414 5.50391C 64.668 5.20703 64.9727 4.97266 65.3555 4.80078C 65.7422 4.62891 66.166 4.54297 66.627 4.54297C 67.3574 4.54297 67.9297 4.72656 68.3438 5.09375C 68.7578 5.45703 68.9727 5.95898 68.9883 6.59961L 68.9883 9.51758C 68.9883 10.0996 69.0625 10.5625 69.2109 10.9062L 69.2109 11L 68.0742 11ZM 66.2754 10.1738C 66.6152 10.1738 66.9375 10.0859 67.2422 9.91016C 67.5469 9.73438 67.7676 9.50586 67.9043 9.22461L 67.9043 7.92383L 67.0547 7.92383C 65.7266 7.92383 65.0625 8.3125 65.0625 9.08984C 65.0625 9.42969 65.1758 9.69531 65.4023 9.88672C 65.6289 10.0781 65.9199 10.1738 66.2754 10.1738ZM 72.1582 3.125L 72.1582 4.66016L 73.3418 4.66016L 73.3418 5.49805L 72.1582 5.49805L 72.1582 9.42969C 72.1582 9.68359 72.2109 9.875 72.3164 10.0039C 72.4219 10.1289 72.6016 10.1914 72.8555 10.1914C 72.9805 10.1914 73.1523 10.168 73.3711 10.1211L 73.3711 11C 73.0859 11.0781 72.8086 11.1172 72.5391 11.1172C 72.0547 11.1172 71.6895 10.9707 71.4434 10.6777C 71.1973 10.3848 71.0742 9.96875 71.0742 9.42969L 71.0742 5.49805L 69.9199 5.49805L 69.9199 4.66016L 71.0742 4.66016L 71.0742 3.125L 72.1582 3.125ZM 75.791 11L 74.707 11L 74.707 4.66016L 75.791 4.66016L 75.791 11ZM 74.6191 2.97852C 74.6191 2.80273 74.6719 2.6543 74.7773 2.5332C 74.8867 2.41211 75.0469 2.35156 75.2578 2.35156C 75.4688 2.35156 75.6289 2.41211 75.7383 2.5332C 75.8477 2.6543 75.9023 2.80273 75.9023 2.97852C 75.9023 3.1543 75.8477 3.30078 75.7383 3.41797C 75.6289 3.53516 75.4688 3.59375 75.2578 3.59375C 75.0469 3.59375 74.8867 3.53516 74.7773 3.41797C 74.6719 3.30078 74.6191 3.1543 74.6191 2.97852ZM 77.2441 7.77148C 77.2441 7.15039 77.3652 6.5918 77.6074 6.0957C 77.8535 5.59961 78.1934 5.2168 78.627 4.94727C 79.0645 4.67773 79.5625 4.54297 80.1211 4.54297C 80.9844 4.54297 81.6816 4.8418 82.2129 5.43945C 82.748 6.03711 83.0156 6.83203 83.0156 7.82422L 83.0156 7.90039C 83.0156 8.51758 82.8965 9.07227 82.6582 9.56445C 82.4238 10.0527 82.0859 10.4336 81.6445 10.707C 81.207 10.9805 80.7031 11.1172 80.1328 11.1172C 79.2734 11.1172 78.5762 10.8184 78.041 10.2207C 77.5098 9.62305 77.2441 8.83203 77.2441 7.84766L 77.2441 7.77148ZM 78.334 7.90039C 78.334 8.60352 78.4961 9.16797 78.8203 9.59375C 79.1484 10.0195 79.5859 10.2324 80.1328 10.2324C 80.6836 10.2324 81.1211 10.0176 81.4453 9.58789C 81.7695 9.1543 81.9316 8.54883 81.9316 7.77148C 81.9316 7.07617 81.7656 6.51367 81.4336 6.08398C 81.1055 5.65039 80.668 5.43359 80.1211 5.43359C 79.5859 5.43359 79.1543 5.64648 78.8262 6.07227C 78.498 6.49805 78.334 7.10742 78.334 7.90039ZM 85.4004 4.66016L 85.4355 5.45703C 85.9199 4.84766 86.5527 4.54297 87.334 4.54297C 88.6738 4.54297 89.3496 5.29883 89.3613 6.81055L 89.3613 11L 88.2773 11L 88.2773 6.80469C 88.2734 6.34766 88.168 6.00977 87.9609 5.79102C 87.7578 5.57227 87.4395 5.46289 87.0059 5.46289C 86.6543 5.46289 86.3457 5.55664 86.0801 5.74414C 85.8145 5.93164 85.6074 6.17773 85.459 6.48242L 85.459 11L 84.375 11L 84.375 4.66016L 85.4004 4.66016ZM 97.0781 6.42383L 99.457 6.42383L 99.457 7.44922L 97.0781 7.44922L 97.0781 10.1445L 95.9883 10.1445L 95.9883 7.44922L 93.6094 7.44922L 93.6094 6.42383L 95.9883 6.42383L 95.9883 3.93359L 97.0781 3.93359L 97.0781 6.42383ZM 0.5625 21.7773C 0.5625 20.7891 0.791016 20.0039 1.24805 19.4219C 1.70508 18.8359 2.31055 18.543 3.06445 18.543C 3.83789 18.543 4.44141 18.8164 4.875 19.3633L 4.92773 18.6602L 5.91797 18.6602L 5.91797 24.8477C 5.91797 25.668 5.67383 26.3145 5.18555 26.7871C 4.70117 27.2598 4.04883 27.4961 3.22852 27.4961C 2.77148 27.4961 2.32422 27.3984 1.88672 27.2031C 1.44922 27.0078 1.11523 26.7402 0.884766 26.4004L 1.44727 25.75C 1.91211 26.3242 2.48047 26.6113 3.15234 26.6113C 3.67969 26.6113 4.08984 26.4629 4.38281 26.166C 4.67969 25.8691 4.82812 25.4512 4.82812 24.9121L 4.82812 24.3672C 4.39453 24.8672 3.80273 25.1172 3.05273 25.1172C 2.31055 25.1172 1.70898 24.8184 1.24805 24.2207C 0.791016 23.623 0.5625 22.8086 0.5625 21.7773ZM 1.65234 21.9004C 1.65234 22.6152 1.79883 23.1777 2.0918 23.5879C 2.38477 23.9941 2.79492 24.1973 3.32227 24.1973C 4.00586 24.1973 4.50781 23.8867 4.82812 23.2656L 4.82812 20.3711C 4.49609 19.7656 3.99805 19.4629 3.33398 19.4629C 2.80664 19.4629 2.39453 19.668 2.09766 20.0781C 1.80078 20.4883 1.65234 21.0957 1.65234 21.9004ZM 10.1895 25.1172C 9.33008 25.1172 8.63086 24.8359 8.0918 24.2734C 7.55273 23.707 7.2832 22.9512 7.2832 22.0059L 7.2832 21.8066C 7.2832 21.1777 7.40234 20.6172 7.64062 20.125C 7.88281 19.6289 8.21875 19.2422 8.64844 18.9648C 9.08203 18.6836 9.55078 18.543 10.0547 18.543C 10.8789 18.543 11.5195 18.8145 11.9766 19.3574C 12.4336 19.9004 12.6621 20.6777 12.6621 21.6895L 12.6621 22.1406L 8.36719 22.1406C 8.38281 22.7656 8.56445 23.2715 8.91211 23.6582C 9.26367 24.041 9.70898 24.2324 10.248 24.2324C 10.6309 24.2324 10.9551 24.1543 11.2207 23.998C 11.4863 23.8418 11.7188 23.6348 11.918 23.377L 12.5801 23.8926C 12.0488 24.709 11.252 25.1172 10.1895 25.1172ZM 10.0547 19.4336C 9.61719 19.4336 9.25 19.5938 8.95312 19.9141C 8.65625 20.2305 8.47266 20.6758 8.40234 21.25L 11.5781 21.25L 11.5781 21.168C 11.5469 20.6172 11.3984 20.1914 11.1328 19.8906C 10.8672 19.5859 10.5078 19.4336 10.0547 19.4336ZM 14.9473 18.6602L 14.9824 19.457C 15.4668 18.8477 16.0996 18.543 16.8809 18.543C 18.2207 18.543 18.8965 19.2988 18.9082 20.8105L 18.9082 25L 17.8242 25L 17.8242 20.8047C 17.8203 20.3477 17.7148 20.0098 17.5078 19.791C 17.3047 19.5723 16.9863 19.4629 16.5527 19.4629C 16.2012 19.4629 15.8926 19.5566 15.627 19.7441C 15.3613 19.9316 15.1543 20.1777 15.0059 20.4824L 15.0059 25L 13.9219 25L 13.9219 18.6602L 14.9473 18.6602ZM 23.1738 25.1172C 22.3145 25.1172 21.6152 24.8359 21.0762 24.2734C 20.5371 23.707 20.2676 22.9512 20.2676 22.0059L 20.2676 21.8066C 20.2676 21.1777 20.3867 20.6172 20.625 20.125C 20.8672 19.6289 21.2031 19.2422 21.6328 18.9648C 22.0664 18.6836 22.5352 18.543 23.0391 18.543C 23.8633 18.543 24.5039 18.8145 24.9609 19.3574C 25.418 19.9004 25.6465 20.6777 25.6465 21.6895L 25.6465 22.1406L 21.3516 22.1406C 21.3672 22.7656 21.5488 23.2715 21.8965 23.6582C 22.248 24.041 22.6934 24.2324 23.2324 24.2324C 23.6152 24.2324 23.9395 24.1543 24.2051 23.998C 24.4707 23.8418 24.7031 23.6348 24.9023 23.377L 25.5645 23.8926C 25.0332 24.709 24.2363 25.1172 23.1738 25.1172ZM 23.0391 19.4336C 22.6016 19.4336 22.2344 19.5938 21.9375 19.9141C 21.6406 20.2305 21.457 20.6758 21.3867 21.25L 24.5625 21.25L 24.5625 21.168C 24.5312 20.6172 24.3828 20.1914 24.1172 19.8906C 23.8516 19.5859 23.4922 19.4336 23.0391 19.4336ZM 29.9707 19.6328C 29.8066 19.6055 29.6289 19.5918 29.4375 19.5918C 28.7266 19.5918 28.2441 19.8945 27.9902 20.5L 27.9902 25L 26.9062 25L 26.9062 18.6602L 27.9609 18.6602L 27.9785 19.3926C 28.334 18.8262 28.8379 18.543 29.4902 18.543C 29.7012 18.543 29.8613 18.5703 29.9707 18.625L 29.9707 19.6328ZM 34.6523 25C 34.5898 24.875 34.5391 24.6523 34.5 24.332C 33.9961 24.8555 33.3945 25.1172 32.6953 25.1172C 32.0703 25.1172 31.5566 24.9414 31.1543 24.5898C 30.7559 24.2344 30.5566 23.7852 30.5566 23.2422C 30.5566 22.582 30.8066 22.0703 31.3066 21.707C 31.8105 21.3398 32.5176 21.1562 33.4277 21.1562L 34.4824 21.1562L 34.4824 20.6582C 34.4824 20.2793 34.3691 19.9785 34.1426 19.7559C 33.916 19.5293 33.582 19.416 33.1406 19.416C 32.7539 19.416 32.4297 19.5137 32.168 19.709C 31.9062 19.9043 31.7754 20.1406 31.7754 20.418L 30.6855 20.418C 30.6855 20.1016 30.7969 19.7969 31.0195 19.5039C 31.2461 19.207 31.5508 18.9727 31.9336 18.8008C 32.3203 18.6289 32.7441 18.543 33.2051 18.543C 33.9355 18.543 34.5078 18.7266 34.9219 19.0938C 35.3359 19.457 35.5508 19.959 35.5664 20.5996L 35.5664 23.5176C 35.5664 24.0996 35.6406 24.5625 35.7891 24.9062L 35.7891 25L 34.6523 25ZM 32.8535 24.1738C 33.1934 24.1738 33.5156 24.0859 33.8203 23.9102C 34.125 23.7344 34.3457 23.5059 34.4824 23.2246L 34.4824 21.9238L 33.6328 21.9238C 32.3047 21.9238 31.6406 22.3125 31.6406 23.0898C 31.6406 23.4297 31.7539 23.6953 31.9805 23.8867C 32.207 24.0781 32.498 24.1738 32.8535 24.1738ZM 38.7363 17.125L 38.7363 18.6602L 39.9199 18.6602L 39.9199 19.498L 38.7363 19.498L 38.7363 23.4297C 38.7363 23.6836 38.7891 23.875 38.8945 24.0039C 39 24.1289 39.1797 24.1914 39.4336 24.1914C 39.5586 24.1914 39.7305 24.168 39.9492 24.1211L 39.9492 25C 39.6641 25.0781 39.3867 25.1172 39.1172 25.1172C 38.6328 25.1172 38.2676 24.9707 38.0215 24.6777C 37.7754 24.3848 37.6523 23.9688 37.6523 23.4297L 37.6523 19.498L 36.498 19.498L 36.498 18.6602L 37.6523 18.6602L 37.6523 17.125L 38.7363 17.125ZM 42.3691 25L 41.2852 25L 41.2852 18.6602L 42.3691 18.6602L 42.3691 25ZM 41.1973 16.9785C 41.1973 16.8027 41.25 16.6543 41.3555 16.5332C 41.4648 16.4121 41.625 16.3516 41.8359 16.3516C 42.0469 16.3516 42.207 16.4121 42.3164 16.5332C 42.4258 16.6543 42.4805 16.8027 42.4805 16.9785C 42.4805 17.1543 42.4258 17.3008 42.3164 17.418C 42.207 17.5352 42.0469 17.5938 41.8359 17.5938C 41.625 17.5938 41.4648 17.5352 41.3555 17.418C 41.25 17.3008 41.1973 17.1543 41.1973 16.9785ZM 45.1348 18.6602L 45.1699 19.457C 45.6543 18.8477 46.2871 18.543 47.0684 18.543C 48.4082 18.543 49.084 19.2988 49.0957 20.8105L 49.0957 25L 48.0117 25L 48.0117 20.8047C 48.0078 20.3477 47.9023 20.0098 47.6953 19.791C 47.4922 19.5723 47.1738 19.4629 46.7402 19.4629C 46.3887 19.4629 46.0801 19.5566 45.8145 19.7441C 45.5488 19.9316 45.3418 20.1777 45.1934 20.4824L 45.1934 25L 44.1094 25L 44.1094 18.6602L 45.1348 18.6602ZM 50.4727 21.7773C 50.4727 20.7891 50.7012 20.0039 51.1582 19.4219C 51.6152 18.8359 52.2207 18.543 52.9746 18.543C 53.748 18.543 54.3516 18.8164 54.7852 19.3633L 54.8379 18.6602L 55.8281 18.6602L 55.8281 24.8477C 55.8281 25.668 55.584 26.3145 55.0957 26.7871C 54.6113 27.2598 53.959 27.4961 53.1387 27.4961C 52.6816 27.4961 52.2344 27.3984 51.7969 27.2031C 51.3594 27.0078 51.0254 26.7402 50.7949 26.4004L 51.3574 25.75C 51.8223 26.3242 52.3906 26.6113 53.0625 26.6113C 53.5898 26.6113 54 26.4629 54.293 26.166C 54.5898 25.8691 54.7383 25.4512 54.7383 24.9121L 54.7383 24.3672C 54.3047 24.8672 53.7129 25.1172 52.9629 25.1172C 52.2207 25.1172 51.6191 24.8184 51.1582 24.2207C 50.7012 23.623 50.4727 22.8086 50.4727 21.7773ZM 51.5625 21.9004C 51.5625 22.6152 51.709 23.1777 52.002 23.5879C 52.2949 23.9941 52.7051 24.1973 53.2324 24.1973C 53.916 24.1973 54.418 23.8867 54.7383 23.2656L 54.7383 20.3711C 54.4062 19.7656 53.9082 19.4629 53.2441 19.4629C 52.7168 19.4629 52.3047 19.668 52.0078 20.0781C 51.7109 20.4883 51.5625 21.0957 51.5625 21.9004ZM 61.4707 18.6602L 61.5059 19.457C 61.9902 18.8477 62.623 18.543 63.4043 18.543C 64.7441 18.543 65.4199 19.2988 65.4316 20.8105L 65.4316 25L 64.3477 25L 64.3477 20.8047C 64.3438 20.3477 64.2383 20.0098 64.0312 19.791C 63.8281 19.5723 63.5098 19.4629 63.0762 19.4629C 62.7246 19.4629 62.416 19.5566 62.1504 19.7441C 61.8848 19.9316 61.6777 20.1777 61.5293 20.4824L 61.5293 25L 60.4453 25L 60.4453 18.6602L 61.4707 18.6602ZM 69.6973 25.1172C 68.8379 25.1172 68.1387 24.8359 67.5996 24.2734C 67.0605 23.707 66.791 22.9512 66.791 22.0059L 66.791 21.8066C 66.791 21.1777 66.9102 20.6172 67.1484 20.125C 67.3906 19.6289 67.7266 19.2422 68.1562 18.9648C 68.5898 18.6836 69.0586 18.543 69.5625 18.543C 70.3867 18.543 71.0273 18.8145 71.4844 19.3574C 71.9414 19.9004 72.1699 20.6777 72.1699 21.6895L 72.1699 22.1406L 67.875 22.1406C 67.8906 22.7656 68.0723 23.2715 68.4199 23.6582C 68.7715 24.041 69.2168 24.2324 69.7559 24.2324C 70.1387 24.2324 70.4629 24.1543 70.7285 23.998C 70.9941 23.8418 71.2266 23.6348 71.4258 23.377L 72.0879 23.8926C 71.5566 24.709 70.7598 25.1172 69.6973 25.1172ZM 69.5625 19.4336C 69.125 19.4336 68.7578 19.5938 68.4609 19.9141C 68.1641 20.2305 67.9805 20.6758 67.9102 21.25L 71.0859 21.25L 71.0859 21.168C 71.0547 20.6172 70.9062 20.1914 70.6406 19.8906C 70.375 19.5859 70.0156 19.4336 69.5625 19.4336ZM 79.043 23.5059L 80.2617 18.6602L 81.3457 18.6602L 79.5 25L 78.6211 25L 77.0801 20.1953L 75.5801 25L 74.7012 25L 72.8613 18.6602L 73.9395 18.6602L 75.1875 23.4062L 76.6641 18.6602L 77.5371 18.6602L 79.043 23.5059ZM 89.1211 23.3184C 89.1211 23.0254 89.0098 22.7988 88.7871 22.6387C 88.5684 22.4746 88.1836 22.334 87.6328 22.2168C 87.0859 22.0996 86.6504 21.959 86.3262 21.7949C 86.0059 21.6309 85.7676 21.4355 85.6113 21.209C 85.459 20.9824 85.3828 20.7129 85.3828 20.4004C 85.3828 19.8809 85.6016 19.4414 86.0391 19.082C 86.4805 18.7227 87.043 18.543 87.7266 18.543C 88.4453 18.543 89.0273 18.7285 89.4727 19.0996C 89.9219 19.4707 90.1465 19.9453 90.1465 20.5234L 89.0566 20.5234C 89.0566 20.2266 88.9297 19.9707 88.6758 19.7559C 88.4258 19.541 88.1094 19.4336 87.7266 19.4336C 87.332 19.4336 87.0234 19.5195 86.8008 19.6914C 86.5781 19.8633 86.4668 20.0879 86.4668 20.3652C 86.4668 20.627 86.5703 20.8242 86.7773 20.957C 86.9844 21.0898 87.3574 21.2168 87.8965 21.3379C 88.4395 21.459 88.8789 21.6035 89.2148 21.7715C 89.5508 21.9395 89.7988 22.1426 89.959 22.3809C 90.123 22.6152 90.2051 22.9023 90.2051 23.2422C 90.2051 23.8086 89.9785 24.2637 89.5254 24.6074C 89.0723 24.9473 88.4844 25.1172 87.7617 25.1172C 87.2539 25.1172 86.8047 25.0273 86.4141 24.8477C 86.0234 24.668 85.7168 24.418 85.4941 24.0977C 85.2754 23.7734 85.166 23.4238 85.166 23.0488L 86.25 23.0488C 86.2695 23.4121 86.4141 23.7012 86.6836 23.916C 86.957 24.127 87.3164 24.2324 87.7617 24.2324C 88.1719 24.2324 88.5 24.1504 88.7461 23.9863C 88.9961 23.8184 89.1211 23.5957 89.1211 23.3184ZM 92.7012 19.4277C 93.1816 18.8379 93.8066 18.543 94.5762 18.543C 95.916 18.543 96.5918 19.2988 96.6035 20.8105L 96.6035 25L 95.5195 25L 95.5195 20.8047C 95.5156 20.3477 95.4102 20.0098 95.2031 19.791C 95 19.5723 94.6816 19.4629 94.248 19.4629C 93.8965 19.4629 93.5879 19.5566 93.3223 19.7441C 93.0566 19.9316 92.8496 20.1777 92.7012 20.4824L 92.7012 25L 91.6172 25L 91.6172 16L 92.7012 16L 92.7012 19.4277ZM 102.141 25C 102.078 24.875 102.027 24.6523 101.988 24.332C 101.484 24.8555 100.883 25.1172 100.184 25.1172C 99.5586 25.1172 99.0449 24.9414 98.6426 24.5898C 98.2441 24.2344 98.0449 23.7852 98.0449 23.2422C 98.0449 22.582 98.2949 22.0703 98.7949 21.707C 99.2988 21.3398 100.006 21.1562 100.916 21.1562L 101.971 21.1562L 101.971 20.6582C 101.971 20.2793 101.857 19.9785 101.631 19.7559C 101.404 19.5293 101.07 19.416 100.629 19.416C 100.242 19.416 99.918 19.5137 99.6562 19.709C 99.3945 19.9043 99.2637 20.1406 99.2637 20.418L 98.1738 20.418C 98.1738 20.1016 98.2852 19.7969 98.5078 19.5039C 98.7344 19.207 99.0391 18.9727 99.4219 18.8008C 99.8086 18.6289 100.232 18.543 100.693 18.543C 101.424 18.543 101.996 18.7266 102.41 19.0938C 102.824 19.457 103.039 19.959 103.055 20.5996L 103.055 23.5176C 103.055 24.0996 103.129 24.5625 103.277 24.9062L 103.277 25L 102.141 25ZM 100.342 24.1738C 100.682 24.1738 101.004 24.0859 101.309 23.9102C 101.613 23.7344 101.834 23.5059 101.971 23.2246L 101.971 21.9238L 101.121 21.9238C 99.793 21.9238 99.1289 22.3125 99.1289 23.0898C 99.1289 23.4297 99.2422 23.6953 99.4688 23.8867C 99.6953 24.0781 99.9863 24.1738 100.342 24.1738ZM 104.49 21.7773C 104.49 20.8047 104.721 20.0234 105.182 19.4336C 105.643 18.8398 106.246 18.543 106.992 18.543C 107.734 18.543 108.322 18.7969 108.756 19.3047L 108.756 16L 109.84 16L 109.84 25L 108.844 25L 108.791 24.3203C 108.357 24.8516 107.754 25.1172 106.98 25.1172C 106.246 25.1172 105.646 24.8164 105.182 24.2148C 104.721 23.6133 104.49 22.8281 104.49 21.8594L 104.49 21.7773ZM 105.574 21.9004C 105.574 22.6191 105.723 23.1816 106.02 23.5879C 106.316 23.9941 106.727 24.1973 107.25 24.1973C 107.938 24.1973 108.439 23.8887 108.756 23.2715L 108.756 20.3594C 108.432 19.7617 107.934 19.4629 107.262 19.4629C 106.73 19.4629 106.316 19.668 106.02 20.0781C 105.723 20.4883 105.574 21.0957 105.574 21.9004ZM 114.158 25.1172C 113.299 25.1172 112.6 24.8359 112.061 24.2734C 111.521 23.707 111.252 22.9512 111.252 22.0059L 111.252 21.8066C 111.252 21.1777 111.371 20.6172 111.609 20.125C 111.852 19.6289 112.188 19.2422 112.617 18.9648C 113.051 18.6836 113.52 18.543 114.023 18.543C 114.848 18.543 115.488 18.8145 115.945 19.3574C 116.402 19.9004 116.631 20.6777 116.631 21.6895L 116.631 22.1406L 112.336 22.1406C 112.352 22.7656 112.533 23.2715 112.881 23.6582C 113.232 24.041 113.678 24.2324 114.217 24.2324C 114.6 24.2324 114.924 24.1543 115.189 23.998C 115.455 23.8418 115.688 23.6348 115.887 23.377L 116.549 23.8926C 116.018 24.709 115.221 25.1172 114.158 25.1172ZM 114.023 19.4336C 113.586 19.4336 113.219 19.5938 112.922 19.9141C 112.625 20.2305 112.441 20.6758 112.371 21.25L 115.547 21.25L 115.547 21.168C 115.516 20.6172 115.367 20.1914 115.102 19.8906C 114.836 19.5859 114.477 19.4336 114.023 19.4336ZM 120.955 19.6328C 120.791 19.6055 120.613 19.5918 120.422 19.5918C 119.711 19.5918 119.229 19.8945 118.975 20.5L 118.975 25L 117.891 25L 117.891 18.6602L 118.945 18.6602L 118.963 19.3926C 119.318 18.8262 119.822 18.543 120.475 18.543C 120.686 18.543 120.846 18.5703 120.955 18.625L 120.955 19.6328Z"/>
</defs>
</svg>
