<svg width="84" height="79" viewBox="0 0 84 79" version="2.0" xmlns="http://www.w3.org/2000/svg" xmlns:xlink="http://www.w3.org/1999/xlink" xmlns:figma="http://www.figma.com/figma/ns">
<title>Slice</title>
<desc>Created using Figma (9000)</desc>
<g id="Canvas" transform="translate(552 -1220)" figma:type="canvas">
<g id="&#206;&#177;" style="mix-blend-mode:normal;" figma:type="text">
<use xlink:href="#path0_fill" transform="matrix(1 0 0 1 -593 1159)" fill="#222222" style="mix-blend-mode:normal;"/>
</g>
</g>
<defs>
<path id="path0_fill" d="
M 72.84 126.12
C 77.1067 126.12 80.5733 124.253 83.24 120.52
C 85.9067 116.68 88.68 111.133 91.56 103.88
C 91.24 100.573 90.6 96.8933 89.64 92.84
C 88.7867 88.7867 87.56 85.0533 85.96 81.64
C 84.36 78.2267 82.3333 75.3467 79.88 73
C 77.4267 70.6533 74.5467 69.48 71.24 69.48
C 66.5467 69.48 62.8133 71.72 60.04 76.2
C 57.2667 80.68 55.88 87.1333 55.88 95.56
C 55.88 104.947 57.32 112.413 60.2 117.96
C 63.08 123.4 67.2933 126.12 72.84 126.12
Z
M 114.76 66.6
C 114.76 68.7333 113.8 72.8933 111.88 79.08
C 109.96 85.16 106.707 92.84 102.12 102.12
C 103.08 107.24 103.987 111.293 104.84 114.28
C 105.8 117.267 106.707 119.56 107.56 121.16
C 108.413 122.76 109.32 123.827 110.28 124.36
C 111.24 124.787 112.2 125 113.16 125
C 114.333 125 115.4 124.84 116.36 124.52
C 117.427 124.093 118.707 123.613 120.2 123.08
C 120.627 123.613 120.947 124.36 121.16 125.32
C 121.48 126.173 121.533 127.027 121.32 127.88
C 119.507 129.373 117.373 130.813 114.92 132.2
C 112.467 133.48 110.013 134.12 107.56 134.12
C 105.64 134.12 103.933 133.907 102.44 133.48
C 101.053 133.053 99.7733 132.2 98.6 130.92
C 97.5333 129.64 96.5733 127.827 95.72 125.48
C 94.9733 123.133 94.3333 120.04 93.8 116.2
C 92.52 118.973 91.1867 121.48 89.8 123.72
C 88.4133 125.853 86.8133 127.72 85 129.32
C 83.1867 130.813 81.1067 131.987 78.76 132.84
C 76.4133 133.693 73.64 134.12 70.44 134.12
C 66.6 134.12 62.9733 133.373 59.56 131.88
C 56.1467 130.28 53.16 127.987 50.6 125
C 48.04 122.013 46.0133 118.387 44.52 114.12
C 43.0267 109.747 42.28 104.787 42.28 99.24
C 42.28 95.08 42.8667 90.8667 44.04 86.6
C 45.2133 82.2267 46.9733 78.28 49.32 74.76
C 51.7733 71.24 54.8667 68.36 58.6 66.12
C 62.44 63.88 67.0267 62.76 72.36 62.76
C 76.52 62.76 80.04 63.4 82.92 64.68
C 85.8 65.8533 88.2 67.56 90.12 69.8
C 92.04 71.9333 93.64 74.44 94.92 77.32
C 96.2 80.2 97.32 83.2933 98.28 86.6
C 99.24 83.5067 99.88 80.5733 100.2 77.8
C 100.627 75.0267 101.107 71.88 101.64 68.36
C 101.853 67.1867 102.333 66.44 103.08 66.12
C 103.933 65.6933 105.693 65.1067 108.36 64.36
C 109 64.1467 109.853 63.9333 110.92 63.72
C 112.093 63.4 112.84 63.24 113.16 63.24
C 114.227 63.24 114.76 64.36 114.76 66.6
Z"/>
</defs>
</svg>
