<svg width="45" height="15" viewBox="0 0 45 15" version="2.0" xmlns="http://www.w3.org/2000/svg" xmlns:xlink="http://www.w3.org/1999/xlink" xmlns:figma="http://www.figma.com/figma/ns">
<title>tool-node-node-constraint</title>
<desc>Created using Figma (9000)</desc>
<g id="Canvas" transform="translate(850 373)" figma:type="canvas">
<g id="Icons for export" style="mix-blend-mode:normal;" figma:type="group">
<g id="constrain node to node" style="mix-blend-mode:normal;" figma:type="text">
<use xlink:href="#path0_fill" transform="translate(-849 -374)" fill="#828282" style="mix-blend-mode:normal;"/>
</g>
</g>
</g>
<defs>
<path id="path0_fill" d="
M 2.79932 5.69092
L 2.79932 6.30615
C 2.48714 6.42236 2.1818 6.48047 1.8833 6.48047
C 1.39111 6.48047 0.998047 6.33464 0.704102 6.04297
C 0.412435 5.7513 0.266602 5.36051 0.266602 4.87061
C 0.266602 4.37614 0.409017 3.97738 0.693848 3.67432
C 0.978678 3.37126 1.35352 3.21973 1.81836 3.21973
C 1.98014 3.21973 2.12484 3.23568 2.25244 3.26758
C 2.38232 3.2972 2.54183 3.35417 2.73096 3.43848
L 2.73096 4.10156
C 2.4165 3.90104 2.12484 3.80078 1.85596 3.80078
C 1.57568 3.80078 1.34554 3.8999 1.16553 4.09814
C 0.985514 4.29411 0.895508 4.54476 0.895508 4.8501
C 0.895508 5.17139 0.99235 5.4266 1.18604 5.61572
C 1.382 5.80485 1.64518 5.89941 1.97559 5.89941
C 2.21484 5.89941 2.48942 5.82992 2.79932 5.69092
Z
M 5.01074 3.27441
C 5.48926 3.27441 5.88688 3.42936 6.20361 3.73926
C 6.52035 4.04688 6.67871 4.43424 6.67871 4.90137
C 6.67871 5.35482 6.51807 5.73193 6.19678 6.03271
C 5.87549 6.33122 5.47103 6.48047 4.9834 6.48047
C 4.51172 6.48047 4.11751 6.32894 3.80078 6.02588
C 3.48405 5.72054 3.32568 5.34001 3.32568 4.88428
C 3.32568 4.42399 3.48519 4.04118 3.8042 3.73584
C 4.12549 3.42822 4.52767 3.27441 5.01074 3.27441
Z
M 4.97656 3.83496
C 4.67806 3.83496 4.43311 3.93294 4.2417 4.12891
C 4.05029 4.32487 3.95459 4.57438 3.95459 4.87744
C 3.95459 5.17822 4.05257 5.42432 4.24854 5.61572
C 4.4445 5.80485 4.69629 5.89941 5.00391 5.89941
C 5.30924 5.89941 5.55876 5.80371 5.75244 5.6123
C 5.9484 5.41862 6.04639 5.17139 6.04639 4.87061
C 6.04639 4.5721 5.94499 4.32487 5.74219 4.12891
C 5.53939 3.93294 5.28418 3.83496 4.97656 3.83496
Z
M 7.99121 3.28125
L 7.99121 3.68115
C 8.26921 3.37354 8.5848 3.21973 8.93799 3.21973
C 9.13395 3.21973 9.31624 3.271 9.48486 3.37354
C 9.65348 3.4738 9.78109 3.61279 9.86768 3.79053
C 9.95654 3.96598 10.001 4.24512 10.001 4.62793
L 10.001 6.42578
L 9.37891 6.42578
L 9.37891 4.63477
C 9.37891 4.31348 9.32992 4.08447 9.23193 3.94775
C 9.13395 3.80876 8.96989 3.73926 8.73975 3.73926
C 8.4458 3.73926 8.19629 3.88623 7.99121 4.18018
L 7.99121 6.42578
L 7.35547 6.42578
L 7.35547 3.28125
L 7.99121 3.28125
Z
M 10.7153 6.2002
L 10.7153 5.53027
C 10.8908 5.65332 11.0697 5.75358 11.252 5.83105
C 11.4365 5.90625 11.5915 5.94385 11.7168 5.94385
C 11.8467 5.94385 11.9583 5.91195 12.0518 5.84814
C 12.1452 5.78434 12.1919 5.70801 12.1919 5.61914
C 12.1919 5.52799 12.1611 5.4528 12.0996 5.39355
C 12.0404 5.33203 11.9105 5.2443 11.71 5.13037
C 11.3089 4.90706 11.0457 4.7168 10.9204 4.55957
C 10.7974 4.40007 10.7358 4.22689 10.7358 4.04004
C 10.7358 3.7985 10.8293 3.6014 11.0161 3.44873
C 11.2052 3.29606 11.4479 3.21973 11.7441 3.21973
C 12.0518 3.21973 12.3674 3.30632 12.6909 3.47949
L 12.6909 4.09473
C 12.3218 3.87142 12.0199 3.75977 11.7852 3.75977
C 11.6644 3.75977 11.5664 3.78597 11.4912 3.83838
C 11.4183 3.88851 11.3818 3.95573 11.3818 4.04004
C 11.3818 4.11296 11.4149 4.18245 11.481 4.24854
C 11.5493 4.31462 11.6678 4.39437 11.8364 4.48779
L 12.0586 4.61426
C 12.5827 4.91048 12.8447 5.23861 12.8447 5.59863
C 12.8447 5.85612 12.7433 6.06803 12.5405 6.23438
C 12.34 6.39844 12.0814 6.48047 11.7646 6.48047
C 11.5778 6.48047 11.4115 6.4611 11.2656 6.42236
C 11.1198 6.38135 10.9364 6.30729 10.7153 6.2002
Z
M 13.1216 3.78027
L 14.2905 2.63184
L 14.2905 3.28125
L 15.2852 3.28125
L 15.2852 3.8418
L 14.2905 3.8418
L 14.2905 5.3833
C 14.2905 5.74333 14.4398 5.92334 14.7383 5.92334
C 14.9616 5.92334 15.1974 5.84814 15.4458 5.69775
L 15.4458 6.27881
C 15.2065 6.41325 14.9456 6.48047 14.6631 6.48047
C 14.3783 6.48047 14.1413 6.3973 13.9521 6.23096
C 13.8929 6.18083 13.8439 6.125 13.8052 6.06348
C 13.7664 5.99967 13.7334 5.91764 13.7061 5.81738
C 13.681 5.71484 13.6685 5.52116 13.6685 5.23633
L 13.6685 3.8418
L 13.1216 3.8418
L 13.1216 3.78027
Z
M 16.5601 3.28125
L 16.5601 4.00244
L 16.5942 3.94775
C 16.895 3.4624 17.1958 3.21973 17.4966 3.21973
C 17.7313 3.21973 17.9762 3.33822 18.2314 3.5752
L 17.9033 4.12207
C 17.6868 3.91699 17.4863 3.81445 17.3018 3.81445
C 17.1012 3.81445 16.9269 3.91016 16.7788 4.10156
C 16.633 4.29297 16.5601 4.51969 16.5601 4.78174
L 16.5601 6.42578
L 15.9346 6.42578
L 15.9346 3.28125
L 16.5601 3.28125
Z
M 20.6411 4.53564
L 20.6411 5.87207
C 20.6411 5.97917 20.6776 6.03271 20.7505 6.03271
C 20.8257 6.03271 20.943 5.97689 21.1025 5.86523
L 21.1025 6.24463
C 20.9613 6.33577 20.8473 6.3973 20.7607 6.4292
C 20.6764 6.46338 20.5876 6.48047 20.4941 6.48047
C 20.2275 6.48047 20.0703 6.37565 20.0225 6.16602
C 19.7581 6.37109 19.4767 6.47363 19.1782 6.47363
C 18.9595 6.47363 18.7772 6.40186 18.6313 6.2583
C 18.4855 6.11247 18.4126 5.93018 18.4126 5.71143
C 18.4126 5.51318 18.4832 5.33659 18.6245 5.18164
C 18.7681 5.02441 18.9709 4.90023 19.2329 4.80908
L 20.0293 4.53564
L 20.0293 4.36816
C 20.0293 3.98991 19.8402 3.80078 19.4619 3.80078
C 19.1224 3.80078 18.792 3.97624 18.4707 4.32715
L 18.4707 3.64697
C 18.7122 3.36214 19.0597 3.21973 19.5132 3.21973
C 19.8527 3.21973 20.125 3.30859 20.3301 3.48633
C 20.3984 3.54329 20.46 3.61963 20.5146 3.71533
C 20.5693 3.80876 20.6035 3.90332 20.6172 3.99902
C 20.6331 4.09245 20.6411 4.27132 20.6411 4.53564
Z
M 20.0293 5.80371
L 20.0293 4.87061
L 19.6123 5.03125
C 19.4004 5.11556 19.25 5.20101 19.1611 5.2876
C 19.0745 5.37191 19.0312 5.47786 19.0312 5.60547
C 19.0312 5.73535 19.0723 5.84131 19.1543 5.92334
C 19.2386 6.00537 19.3468 6.04639 19.479 6.04639
C 19.6772 6.04639 19.8607 5.96549 20.0293 5.80371
Z
M 21.9741 1.9585
C 22.0767 1.9585 22.1644 1.99382 22.2373 2.06445
C 22.3102 2.13509 22.3467 2.22168 22.3467 2.32422
C 22.3467 2.42448 22.3102 2.51107 22.2373 2.58398
C 22.1644 2.6569 22.0767 2.69336 21.9741 2.69336
C 21.8784 2.69336 21.7941 2.6569 21.7212 2.58398
C 21.6483 2.50879 21.6118 2.4222 21.6118 2.32422
C 21.6118 2.22852 21.6483 2.14421 21.7212 2.07129
C 21.7941 1.99609 21.8784 1.9585 21.9741 1.9585
Z
M 21.6665 3.28125
L 22.2886 3.28125
L 22.2886 6.42578
L 21.6665 6.42578
L 21.6665 3.28125
Z
M 23.8096 3.28125
L 23.8096 3.68115
C 24.0876 3.37354 24.4032 3.21973 24.7563 3.21973
C 24.9523 3.21973 25.1346 3.271 25.3032 3.37354
C 25.4718 3.4738 25.5994 3.61279 25.686 3.79053
C 25.7749 3.96598 25.8193 4.24512 25.8193 4.62793
L 25.8193 6.42578
L 25.1973 6.42578
L 25.1973 4.63477
C 25.1973 4.31348 25.1483 4.08447 25.0503 3.94775
C 24.9523 3.80876 24.7882 3.73926 24.5581 3.73926
C 24.2642 3.73926 24.0146 3.88623 23.8096 4.18018
L 23.8096 6.42578
L 23.1738 6.42578
L 23.1738 3.28125
L 23.8096 3.28125
Z
M 29.2544 3.28125
L 29.2544 3.68115
C 29.5324 3.37354 29.848 3.21973 30.2012 3.21973
C 30.3971 3.21973 30.5794 3.271 30.748 3.37354
C 30.9167 3.4738 31.0443 3.61279 31.1309 3.79053
C 31.2197 3.96598 31.2642 4.24512 31.2642 4.62793
L 31.2642 6.42578
L 30.6421 6.42578
L 30.6421 4.63477
C 30.6421 4.31348 30.5931 4.08447 30.4951 3.94775
C 30.3971 3.80876 30.2331 3.73926 30.0029 3.73926
C 29.709 3.73926 29.4595 3.88623 29.2544 4.18018
L 29.2544 6.42578
L 28.6187 6.42578
L 28.6187 3.28125
L 29.2544 3.28125
Z
M 33.6362 3.27441
C 34.1147 3.27441 34.5124 3.42936 34.8291 3.73926
C 35.1458 4.04688 35.3042 4.43424 35.3042 4.90137
C 35.3042 5.35482 35.1436 5.73193 34.8223 6.03271
C 34.501 6.33122 34.0965 6.48047 33.6089 6.48047
C 33.1372 6.48047 32.743 6.32894 32.4263 6.02588
C 32.1095 5.72054 31.9512 5.34001 31.9512 4.88428
C 31.9512 4.42399 32.1107 4.04118 32.4297 3.73584
C 32.751 3.42822 33.1532 3.27441 33.6362 3.27441
Z
M 33.6021 3.83496
C 33.3035 3.83496 33.0586 3.93294 32.8672 4.12891
C 32.6758 4.32487 32.5801 4.57438 32.5801 4.87744
C 32.5801 5.17822 32.6781 5.42432 32.874 5.61572
C 33.07 5.80485 33.3218 5.89941 33.6294 5.89941
C 33.9347 5.89941 34.1842 5.80371 34.3779 5.6123
C 34.5739 5.41862 34.6719 5.17139 34.6719 4.87061
C 34.6719 4.5721 34.5705 4.32487 34.3677 4.12891
C 34.1649 3.93294 33.9097 3.83496 33.6021 3.83496
Z
M 38.0933 1.65088
L 38.7188 1.65088
L 38.7188 6.42578
L 37.3892 6.42578
C 36.9243 6.42578 36.5529 6.27881 36.2749 5.98486
C 35.9992 5.69092 35.8613 5.29671 35.8613 4.80225
C 35.8613 4.33968 36.006 3.95915 36.2954 3.66064
C 36.5871 3.36214 36.9585 3.21289 37.4097 3.21289
C 37.6193 3.21289 37.8472 3.25732 38.0933 3.34619
L 38.0933 1.65088
Z
M 38.0933 5.89258
L 38.0933 3.8999
C 37.8996 3.80192 37.7036 3.75293 37.5054 3.75293
C 37.1955 3.75293 36.9482 3.85433 36.7637 4.05713
C 36.5814 4.25993 36.4902 4.53337 36.4902 4.87744
C 36.4902 5.20101 36.57 5.45052 36.7295 5.62598
C 36.8252 5.73079 36.9266 5.80143 37.0337 5.83789
C 37.1408 5.87435 37.3333 5.89258 37.6113 5.89258
L 38.0933 5.89258
Z
M 42.2427 4.9082
L 40.0312 4.9082
C 40.0472 5.20898 40.1475 5.44824 40.332 5.62598
C 40.5189 5.80371 40.7593 5.89258 41.0532 5.89258
C 41.4634 5.89258 41.8416 5.76497 42.188 5.50977
L 42.188 6.11816
C 41.9966 6.24577 41.8063 6.33691 41.6172 6.3916
C 41.4303 6.44629 41.2104 6.47363 40.9575 6.47363
C 40.6112 6.47363 40.3309 6.40186 40.1167 6.2583
C 39.9025 6.11475 39.7305 5.9222 39.6006 5.68066
C 39.473 5.43685 39.4092 5.15544 39.4092 4.83643
C 39.4092 4.35791 39.5448 3.9694 39.8159 3.6709
C 40.0871 3.37012 40.4391 3.21973 40.8721 3.21973
C 41.2891 3.21973 41.6217 3.36556 41.8701 3.65723
C 42.1185 3.94889 42.2427 4.33968 42.2427 4.82959
L 42.2427 4.9082
Z
M 40.0449 4.53564
L 41.6274 4.53564
C 41.6115 4.28727 41.5374 4.09587 41.4053 3.96143
C 41.2731 3.82699 41.0954 3.75977 40.8721 3.75977
C 40.6488 3.75977 40.4653 3.82699 40.3218 3.96143
C 40.1805 4.09587 40.0882 4.28727 40.0449 4.53564
Z
M 0 11.8193
L 1.16895 10.6709
L 1.16895 11.3203
L 2.16357 11.3203
L 2.16357 11.8809
L 1.16895 11.8809
L 1.16895 13.4224
C 1.16895 13.7824 1.3182 13.9624 1.6167 13.9624
C 1.84001 13.9624 2.07585 13.8872 2.32422 13.7368
L 2.32422 14.3179
C 2.08496 14.4523 1.82406 14.5195 1.5415 14.5195
C 1.25667 14.5195 1.01969 14.4364 0.830566 14.27
C 0.771322 14.2199 0.722331 14.1641 0.683594 14.1025
C 0.644857 14.0387 0.611816 13.9567 0.584473 13.8564
C 0.559408 13.7539 0.546875 13.5602 0.546875 13.2754
L 0.546875 11.8809
L 0 11.8809
L 0 11.8193
Z
M 4.27588 11.3135
C 4.75439 11.3135 5.15202 11.4684 5.46875 11.7783
C 5.78548 12.0859 5.94385 12.4733 5.94385 12.9404
C 5.94385 13.3939 5.7832 13.771 5.46191 14.0718
C 5.14062 14.3703 4.73617 14.5195 4.24854 14.5195
C 3.77686 14.5195 3.38265 14.368 3.06592 14.0649
C 2.74919 13.7596 2.59082 13.3791 2.59082 12.9233
C 2.59082 12.4631 2.75033 12.0802 3.06934 11.7749
C 3.39062 11.4673 3.79281 11.3135 4.27588 11.3135
Z
M 4.2417 11.874
C 3.9432 11.874 3.69824 11.972 3.50684 12.168
C 3.31543 12.3639 3.21973 12.6134 3.21973 12.9165
C 3.21973 13.2173 3.31771 13.4634 3.51367 13.6548
C 3.70964 13.8439 3.96143 13.9385 4.26904 13.9385
C 4.57438 13.9385 4.82389 13.8428 5.01758 13.6514
C 5.21354 13.4577 5.31152 13.2104 5.31152 12.9097
C 5.31152 12.6112 5.21012 12.3639 5.00732 12.168
C 4.80452 11.972 4.54932 11.874 4.2417 11.874
Z
M 9.20117 11.3203
L 9.20117 11.7202
C 9.47917 11.4126 9.79476 11.2588 10.1479 11.2588
C 10.3439 11.2588 10.5262 11.3101 10.6948 11.4126
C 10.8634 11.5129 10.991 11.6519 11.0776 11.8296
C 11.1665 12.005 11.2109 12.2842 11.2109 12.667
L 11.2109 14.4648
L 10.5889 14.4648
L 10.5889 12.6738
C 10.5889 12.3525 10.5399 12.1235 10.4419 11.9868
C 10.3439 11.8478 10.1799 11.7783 9.94971 11.7783
C 9.65576 11.7783 9.40625 11.9253 9.20117 12.2192
L 9.20117 14.4648
L 8.56543 14.4648
L 8.56543 11.3203
L 9.20117 11.3203
Z
M 13.583 11.3135
C 14.0615 11.3135 14.4591 11.4684 14.7759 11.7783
C 15.0926 12.0859 15.251 12.4733 15.251 12.9404
C 15.251 13.3939 15.0903 13.771 14.769 14.0718
C 14.4478 14.3703 14.0433 14.5195 13.5557 14.5195
C 13.084 14.5195 12.6898 14.368 12.373 14.0649
C 12.0563 13.7596 11.8979 13.3791 11.8979 12.9233
C 11.8979 12.4631 12.0575 12.0802 12.3765 11.7749
C 12.6978 11.4673 13.0999 11.3135 13.583 11.3135
Z
M 13.5488 11.874
C 13.2503 11.874 13.0054 11.972 12.814 12.168
C 12.6226 12.3639 12.5269 12.6134 12.5269 12.9165
C 12.5269 13.2173 12.6248 13.4634 12.8208 13.6548
C 13.0168 13.8439 13.2686 13.9385 13.5762 13.9385
C 13.8815 13.9385 14.131 13.8428 14.3247 13.6514
C 14.5207 13.4577 14.6187 13.2104 14.6187 12.9097
C 14.6187 12.6112 14.5173 12.3639 14.3145 12.168
C 14.1117 11.972 13.8564 11.874 13.5488 11.874
Z
M 18.04 9.68994
L 18.6655 9.68994
L 18.6655 14.4648
L 17.3359 14.4648
C 16.8711 14.4648 16.4997 14.3179 16.2217 14.0239
C 15.946 13.73 15.8081 13.3358 15.8081 12.8413
C 15.8081 12.3787 15.9528 11.9982 16.2422 11.6997
C 16.5339 11.4012 16.9053 11.252 17.3564 11.252
C 17.5661 11.252 17.7939 11.2964 18.04 11.3853
L 18.04 9.68994
Z
M 18.04 13.9316
L 18.04 11.939
C 17.8464 11.841 17.6504 11.792 17.4521 11.792
C 17.1423 11.792 16.895 11.8934 16.7104 12.0962
C 16.5282 12.299 16.437 12.5724 16.437 12.9165
C 16.437 13.2401 16.5168 13.4896 16.6763 13.665
C 16.772 13.7699 16.8734 13.8405 16.9805 13.877
C 17.0876 13.9134 17.2801 13.9316 17.5581 13.9316
L 18.04 13.9316
Z
M 22.1895 12.9473
L 19.978 12.9473
C 19.994 13.248 20.0942 13.4873 20.2788 13.665
C 20.4657 13.8428 20.7061 13.9316 21 13.9316
C 21.4102 13.9316 21.7884 13.804 22.1348 13.5488
L 22.1348 14.1572
C 21.9434 14.2848 21.7531 14.376 21.564 14.4307
C 21.3771 14.4854 21.1572 14.5127 20.9043 14.5127
C 20.5579 14.5127 20.2777 14.4409 20.0635 14.2974
C 19.8493 14.1538 19.6772 13.9613 19.5474 13.7197
C 19.4198 13.4759 19.356 13.1945 19.356 12.8755
C 19.356 12.397 19.4915 12.0085 19.7627 11.71
C 20.0339 11.4092 20.3859 11.2588 20.8188 11.2588
C 21.2358 11.2588 21.5685 11.4046 21.8169 11.6963
C 22.0653 11.988 22.1895 12.3787 22.1895 12.8687
L 22.1895 12.9473
Z
M 19.9917 12.5747
L 21.5742 12.5747
C 21.5583 12.3263 21.4842 12.1349 21.3521 12.0005
C 21.2199 11.866 21.0422 11.7988 20.8188 11.7988
C 20.5955 11.7988 20.4121 11.866 20.2686 12.0005
C 20.1273 12.1349 20.035 12.3263 19.9917 12.5747
Z"/>
</defs>
</svg>
