<svg width="25" height="25" viewBox="0 0 25 25" version="2.0" xmlns="http://www.w3.org/2000/svg" xmlns:xlink="http://www.w3.org/1999/xlink" xmlns:figma="http://www.figma.com/figma/ns">
<title>tool-circle</title>
<desc>Created using Figma (9000)</desc>
<g id="Canvas" transform="translate(838 401)" figma:type="canvas">
<g id="Union" style="mix-blend-mode:normal;" figma:type="vector-operation">
<use xlink:href="#path0_fill" transform="translate(-836.772 -399.5)" fill="#828282" style="mix-blend-mode:normal;"/>
</g>
</g>
<defs>
<path id="path0_fill" d="
M 1.03141 6.34331
C 0.369678 7.75745 0 9.33555 0 11
C 0 17.0751 4.92487 22 11 22
C 16.0478 22 20.3015 18.5999 21.5958 13.965
C 22.2686 13.817 22.7721 13.2173 22.7721 12.5
C 22.7721 11.9351 22.4598 11.4431 21.9984 11.1873
C 21.9995 11.125 22 11.0626 22 11
C 22 7.89745 20.7155 5.09491 18.6494 3.09512
C 18.7283 2.91267 18.7721 2.71145 18.7721 2.5
C 18.7721 1.67157 18.1005 1 17.2721 1
C 16.9009 1 16.5611 1.13485 16.2992 1.35825
C 14.7274 0.492543 12.9212 0 11 0
C 7.5761 0 4.51758 1.56431 2.50013 4.01722
C 2.42577 4.00588 2.34961 4 2.27208 4
C 1.44365 4 0.772078 4.67157 0.772078 5.5
C 0.772078 5.81267 0.867746 6.103 1.03141 6.34331
Z
M 15.7721 2.5
C 15.7721 3.32843 16.4437 4 17.2721 4
C 17.5237 4 17.7609 3.93803 17.9692 3.82851
C 19.8386 5.64551 21 8.18713 21 11
C 21 11.0082 21 11.0164 21 11.0246
C 20.3014 11.1526 19.7721 11.7645 19.7721 12.5
C 19.7721 13.0835 20.1053 13.5892 20.5918 13.8372
C 19.3688 17.9782 15.5373 21 11 21
C 5.47715 21 1 16.5228 1 11
C 1 9.55531 1.30635 8.18218 1.85764 6.94201
C 1.98927 6.97977 2.12831 7 2.27208 7
C 3.10051 7 3.77208 6.32843 3.77208 5.5
C 3.77208 5.11866 3.62978 4.77055 3.39538 4.50589
C 5.2295 2.36016 7.95591 1 11 1
C 12.7384 1 14.3733 1.4436 15.7975 2.22378
C 15.7808 2.31331 15.7721 2.40564 15.7721 2.5
Z"/>
</defs>
</svg>
